G04 (created by PCBNEW (2013-07-07 BZR 4022)-stable) date 5/17/2016 5:11:25 PM*
%MOIN*%
G04 Gerber Fmt 3.4, Leading zero omitted, Abs format*
%FSLAX34Y34*%
G01*
G70*
G90*
G04 APERTURE LIST*
%ADD10C,0.00393701*%
%ADD11R,0.031748X0.080748*%
%ADD12R,0.074748X0.066948*%
%ADD13R,0.066948X0.074748*%
%ADD14R,0.0866142X0.0866142*%
%ADD15C,0.0866142*%
%ADD16R,0.055748X0.085748*%
%ADD17O,0.0944882X0.181102*%
%ADD18O,0.181102X0.0944882*%
%ADD19C,0.051148*%
%ADD20C,0.149606*%
%ADD21R,0.094448X0.055148*%
%ADD22C,0.00984252*%
G04 APERTURE END LIST*
G54D10*
X49212Y-31496D02*
G75*
G03X47244Y-33464I0J-1968D01*
G74*
G01*
X56102Y-31889D02*
G75*
G03X55708Y-31496I-393J0D01*
G74*
G01*
X56102Y-33464D02*
G75*
G03X56496Y-33858I393J0D01*
G74*
G01*
X57677Y-33858D02*
G75*
G03X58070Y-33464I0J393D01*
G74*
G01*
X58464Y-31496D02*
G75*
G03X58070Y-31889I0J-393D01*
G74*
G01*
X66929Y-33464D02*
G75*
G03X64960Y-31496I-1968J0D01*
G74*
G01*
X64960Y-51181D02*
G75*
G03X66929Y-49212I0J1968D01*
G74*
G01*
X47244Y-49212D02*
G75*
G03X49212Y-51181I1968J0D01*
G74*
G01*
X49212Y-31496D02*
X55708Y-31496D01*
X56102Y-31889D02*
X56102Y-33464D01*
X56496Y-33858D02*
X57677Y-33858D01*
X58070Y-33464D02*
X58070Y-31889D01*
X58464Y-31496D02*
X64960Y-31496D01*
X66929Y-33464D02*
X66929Y-49212D01*
X64960Y-51181D02*
X49212Y-51181D01*
X47244Y-49212D02*
X47244Y-33464D01*
G36*
X51076Y-42216D02*
X50602Y-42689D01*
X50407Y-42494D01*
X50881Y-42021D01*
X51076Y-42216D01*
X51076Y-42216D01*
G37*
G36*
X50936Y-42076D02*
X50463Y-42550D01*
X50268Y-42355D01*
X50742Y-41881D01*
X50936Y-42076D01*
X50936Y-42076D01*
G37*
G36*
X50797Y-41937D02*
X50324Y-42410D01*
X50129Y-42216D01*
X50602Y-41742D01*
X50797Y-41937D01*
X50797Y-41937D01*
G37*
G36*
X50658Y-41798D02*
X50185Y-42272D01*
X49990Y-42077D01*
X50464Y-41604D01*
X50658Y-41798D01*
X50658Y-41798D01*
G37*
G36*
X50519Y-41659D02*
X50046Y-42132D01*
X49851Y-41938D01*
X50324Y-41464D01*
X50519Y-41659D01*
X50519Y-41659D01*
G37*
G36*
X51494Y-42633D02*
X51020Y-43107D01*
X50825Y-42912D01*
X51299Y-42439D01*
X51494Y-42633D01*
X51494Y-42633D01*
G37*
G36*
X51354Y-42494D02*
X50881Y-42968D01*
X50686Y-42773D01*
X51159Y-42299D01*
X51354Y-42494D01*
X51354Y-42494D01*
G37*
G36*
X51215Y-42355D02*
X50742Y-42828D01*
X50547Y-42633D01*
X51020Y-42160D01*
X51215Y-42355D01*
X51215Y-42355D01*
G37*
G36*
X49962Y-40629D02*
X49767Y-40824D01*
X49294Y-40351D01*
X49489Y-40156D01*
X49962Y-40629D01*
X49962Y-40629D01*
G37*
G36*
X50101Y-40490D02*
X49906Y-40685D01*
X49433Y-40212D01*
X49628Y-40017D01*
X50101Y-40490D01*
X50101Y-40490D01*
G37*
G36*
X50241Y-40351D02*
X50046Y-40546D01*
X49572Y-40072D01*
X49767Y-39877D01*
X50241Y-40351D01*
X50241Y-40351D01*
G37*
G36*
X50380Y-40212D02*
X50185Y-40406D01*
X49712Y-39933D01*
X49906Y-39738D01*
X50380Y-40212D01*
X50380Y-40212D01*
G37*
G36*
X50519Y-40072D02*
X50324Y-40267D01*
X49851Y-39794D01*
X50046Y-39599D01*
X50519Y-40072D01*
X50519Y-40072D01*
G37*
G36*
X50658Y-39933D02*
X50464Y-40128D01*
X49990Y-39654D01*
X50185Y-39460D01*
X50658Y-39933D01*
X50658Y-39933D01*
G37*
G36*
X50797Y-39794D02*
X50602Y-39989D01*
X50129Y-39516D01*
X50324Y-39321D01*
X50797Y-39794D01*
X50797Y-39794D01*
G37*
G36*
X50936Y-39655D02*
X50742Y-39850D01*
X50268Y-39376D01*
X50463Y-39182D01*
X50936Y-39655D01*
X50936Y-39655D01*
G37*
G36*
X52245Y-38819D02*
X51771Y-39293D01*
X51576Y-39098D01*
X52050Y-38624D01*
X52245Y-38819D01*
X52245Y-38819D01*
G37*
G36*
X52384Y-38959D02*
X51910Y-39432D01*
X51716Y-39237D01*
X52189Y-38764D01*
X52384Y-38959D01*
X52384Y-38959D01*
G37*
G36*
X52523Y-39098D02*
X52050Y-39571D01*
X51855Y-39376D01*
X52328Y-38903D01*
X52523Y-39098D01*
X52523Y-39098D01*
G37*
G36*
X52662Y-39237D02*
X52189Y-39711D01*
X51994Y-39516D01*
X52468Y-39042D01*
X52662Y-39237D01*
X52662Y-39237D01*
G37*
G36*
X52802Y-39376D02*
X52328Y-39850D01*
X52134Y-39655D01*
X52607Y-39182D01*
X52802Y-39376D01*
X52802Y-39376D01*
G37*
G36*
X52941Y-39516D02*
X52468Y-39989D01*
X52273Y-39794D01*
X52746Y-39321D01*
X52941Y-39516D01*
X52941Y-39516D01*
G37*
G36*
X53080Y-39654D02*
X52606Y-40128D01*
X52411Y-39933D01*
X52885Y-39460D01*
X53080Y-39654D01*
X53080Y-39654D01*
G37*
G36*
X53219Y-39794D02*
X52746Y-40267D01*
X52551Y-40072D01*
X53024Y-39599D01*
X53219Y-39794D01*
X53219Y-39794D01*
G37*
G36*
X53776Y-41380D02*
X53581Y-41575D01*
X53108Y-41102D01*
X53303Y-40907D01*
X53776Y-41380D01*
X53776Y-41380D01*
G37*
G36*
X53637Y-41520D02*
X53442Y-41715D01*
X52969Y-41241D01*
X53163Y-41046D01*
X53637Y-41520D01*
X53637Y-41520D01*
G37*
G36*
X53497Y-41659D02*
X53303Y-41854D01*
X52829Y-41380D01*
X53024Y-41186D01*
X53497Y-41659D01*
X53497Y-41659D01*
G37*
G36*
X53358Y-41798D02*
X53163Y-41993D01*
X52690Y-41520D01*
X52885Y-41325D01*
X53358Y-41798D01*
X53358Y-41798D01*
G37*
G36*
X53219Y-41938D02*
X53024Y-42132D01*
X52551Y-41659D01*
X52746Y-41464D01*
X53219Y-41938D01*
X53219Y-41938D01*
G37*
G36*
X53080Y-42077D02*
X52885Y-42272D01*
X52411Y-41798D01*
X52606Y-41604D01*
X53080Y-42077D01*
X53080Y-42077D01*
G37*
G36*
X52941Y-42216D02*
X52746Y-42410D01*
X52273Y-41937D01*
X52468Y-41742D01*
X52941Y-42216D01*
X52941Y-42216D01*
G37*
G36*
X52802Y-42355D02*
X52607Y-42550D01*
X52134Y-42076D01*
X52328Y-41881D01*
X52802Y-42355D01*
X52802Y-42355D01*
G37*
G36*
X50380Y-41520D02*
X49906Y-41993D01*
X49712Y-41798D01*
X50185Y-41325D01*
X50380Y-41520D01*
X50380Y-41520D01*
G37*
G36*
X50241Y-41380D02*
X49767Y-41854D01*
X49572Y-41659D01*
X50046Y-41186D01*
X50241Y-41380D01*
X50241Y-41380D01*
G37*
G36*
X50101Y-41241D02*
X49628Y-41715D01*
X49433Y-41520D01*
X49906Y-41046D01*
X50101Y-41241D01*
X50101Y-41241D01*
G37*
G36*
X49962Y-41102D02*
X49489Y-41575D01*
X49294Y-41380D01*
X49767Y-40907D01*
X49962Y-41102D01*
X49962Y-41102D01*
G37*
G36*
X51076Y-39516D02*
X50881Y-39711D01*
X50407Y-39237D01*
X50602Y-39042D01*
X51076Y-39516D01*
X51076Y-39516D01*
G37*
G36*
X51215Y-39376D02*
X51020Y-39571D01*
X50547Y-39098D01*
X50742Y-38903D01*
X51215Y-39376D01*
X51215Y-39376D01*
G37*
G36*
X51354Y-39237D02*
X51159Y-39432D01*
X50686Y-38959D01*
X50881Y-38764D01*
X51354Y-39237D01*
X51354Y-39237D01*
G37*
G36*
X51494Y-39098D02*
X51299Y-39293D01*
X50825Y-38819D01*
X51020Y-38624D01*
X51494Y-39098D01*
X51494Y-39098D01*
G37*
G36*
X53358Y-39933D02*
X52885Y-40406D01*
X52690Y-40212D01*
X53163Y-39738D01*
X53358Y-39933D01*
X53358Y-39933D01*
G37*
G36*
X53497Y-40072D02*
X53024Y-40546D01*
X52829Y-40351D01*
X53303Y-39877D01*
X53497Y-40072D01*
X53497Y-40072D01*
G37*
G36*
X53637Y-40212D02*
X53163Y-40685D01*
X52969Y-40490D01*
X53442Y-40017D01*
X53637Y-40212D01*
X53637Y-40212D01*
G37*
G36*
X53776Y-40351D02*
X53303Y-40824D01*
X53108Y-40629D01*
X53581Y-40156D01*
X53776Y-40351D01*
X53776Y-40351D01*
G37*
G36*
X52662Y-42494D02*
X52468Y-42689D01*
X51994Y-42216D01*
X52189Y-42021D01*
X52662Y-42494D01*
X52662Y-42494D01*
G37*
G36*
X52523Y-42633D02*
X52328Y-42828D01*
X51855Y-42355D01*
X52050Y-42160D01*
X52523Y-42633D01*
X52523Y-42633D01*
G37*
G36*
X52384Y-42773D02*
X52189Y-42968D01*
X51716Y-42494D01*
X51910Y-42299D01*
X52384Y-42773D01*
X52384Y-42773D01*
G37*
G36*
X52245Y-42912D02*
X52050Y-43107D01*
X51576Y-42633D01*
X51771Y-42439D01*
X52245Y-42912D01*
X52245Y-42912D01*
G37*
G54D11*
X57253Y-49448D03*
X56997Y-49448D03*
X56741Y-49448D03*
X56485Y-49448D03*
X58021Y-46614D03*
X58021Y-49448D03*
X57765Y-49448D03*
X57509Y-49448D03*
X56229Y-46614D03*
X56485Y-46614D03*
X56741Y-46614D03*
X56997Y-46614D03*
X57253Y-46614D03*
X57509Y-46614D03*
X56229Y-49448D03*
X57765Y-46614D03*
X58277Y-46614D03*
X58532Y-46614D03*
X58788Y-46614D03*
X58788Y-49448D03*
X58532Y-49448D03*
X58277Y-49448D03*
X55973Y-49448D03*
X55718Y-49448D03*
X55462Y-49448D03*
X55462Y-46614D03*
X55718Y-46614D03*
X55973Y-46614D03*
G54D12*
X63031Y-43995D03*
X63031Y-44745D03*
X55000Y-43995D03*
X55000Y-44745D03*
X59173Y-43995D03*
X59173Y-44745D03*
G54D13*
X53365Y-48582D03*
X54115Y-48582D03*
G54D12*
X60000Y-45963D03*
X60000Y-46713D03*
X51141Y-43995D03*
X51141Y-44745D03*
X60748Y-46713D03*
X60748Y-45963D03*
G54D14*
X58086Y-34657D03*
G54D15*
X58086Y-35657D03*
X57086Y-34657D03*
X57086Y-35657D03*
X56086Y-34657D03*
X56086Y-35657D03*
X48318Y-38582D03*
X48318Y-33070D03*
X65854Y-33070D03*
X65854Y-38582D03*
X55830Y-44094D03*
X48318Y-44094D03*
X58342Y-44094D03*
X63854Y-44094D03*
X60342Y-38582D03*
X53830Y-49606D03*
X53830Y-44094D03*
X53830Y-38582D03*
X53830Y-33070D03*
X65854Y-44094D03*
X60342Y-49606D03*
X60342Y-44094D03*
X65854Y-49606D03*
X60342Y-33070D03*
G54D16*
X60161Y-47795D03*
X60861Y-47795D03*
G54D17*
X61574Y-41338D03*
X64055Y-41338D03*
G54D18*
X62755Y-39370D03*
G54D19*
X56221Y-48711D03*
X57952Y-48711D03*
G54D12*
X57480Y-45296D03*
X57480Y-44546D03*
X57440Y-39782D03*
X57440Y-40532D03*
X54330Y-40766D03*
X54330Y-41516D03*
G54D13*
X58091Y-41417D03*
X57341Y-41417D03*
G54D12*
X56692Y-45296D03*
X56692Y-44546D03*
G54D13*
X59428Y-50551D03*
X60178Y-50551D03*
G54D12*
X54055Y-45963D03*
X54055Y-46713D03*
G54D13*
X60886Y-48622D03*
X60136Y-48622D03*
G54D15*
X48318Y-49606D03*
X50318Y-44094D03*
G54D20*
X64173Y-34251D03*
X50000Y-48425D03*
X64173Y-48425D03*
X50000Y-34251D03*
G54D21*
X60472Y-42145D03*
X60472Y-40689D03*
X61811Y-47165D03*
X61811Y-45709D03*
G54D10*
G36*
X48415Y-39557D02*
X48248Y-39557D01*
X48041Y-39349D01*
X48041Y-39183D01*
X48286Y-39183D01*
X48415Y-39311D01*
X48415Y-39557D01*
X48415Y-39557D01*
G37*
G54D22*
X48415Y-39557D02*
X48248Y-39557D01*
X48041Y-39349D01*
X48041Y-39183D01*
X48286Y-39183D01*
X48415Y-39311D01*
X48415Y-39557D01*
G54D10*
G36*
X48415Y-43365D02*
X48286Y-43494D01*
X48041Y-43494D01*
X48041Y-43327D01*
X48248Y-43120D01*
X48415Y-43120D01*
X48415Y-43365D01*
X48415Y-43365D01*
G37*
G54D22*
X48415Y-43365D02*
X48286Y-43494D01*
X48041Y-43494D01*
X48041Y-43327D01*
X48248Y-43120D01*
X48415Y-43120D01*
X48415Y-43365D01*
G54D10*
G36*
X53927Y-34045D02*
X53760Y-34045D01*
X53553Y-33837D01*
X53553Y-33671D01*
X53802Y-33671D01*
X53927Y-33764D01*
X53927Y-34045D01*
X53927Y-34045D01*
G37*
G54D22*
X53927Y-34045D02*
X53760Y-34045D01*
X53553Y-33837D01*
X53553Y-33671D01*
X53802Y-33671D01*
X53927Y-33764D01*
X53927Y-34045D01*
G54D10*
G36*
X60620Y-33837D02*
X60412Y-34045D01*
X60246Y-34045D01*
X60246Y-33799D01*
X60374Y-33671D01*
X60620Y-33671D01*
X60620Y-33837D01*
X60620Y-33837D01*
G37*
G54D22*
X60620Y-33837D02*
X60412Y-34045D01*
X60246Y-34045D01*
X60246Y-33799D01*
X60374Y-33671D01*
X60620Y-33671D01*
X60620Y-33837D01*
G54D10*
G36*
X59202Y-34911D02*
X58957Y-34911D01*
X58828Y-34782D01*
X58828Y-34537D01*
X58995Y-34537D01*
X59202Y-34744D01*
X59202Y-34911D01*
X59202Y-34911D01*
G37*
G54D22*
X59202Y-34911D02*
X58957Y-34911D01*
X58828Y-34782D01*
X58828Y-34537D01*
X58995Y-34537D01*
X59202Y-34744D01*
X59202Y-34911D01*
G54D10*
G36*
X59202Y-36250D02*
X58957Y-36250D01*
X58828Y-36121D01*
X58828Y-35875D01*
X58995Y-35875D01*
X59202Y-36083D01*
X59202Y-36250D01*
X59202Y-36250D01*
G37*
G54D22*
X59202Y-36250D02*
X58957Y-36250D01*
X58828Y-36121D01*
X58828Y-35875D01*
X58995Y-35875D01*
X59202Y-36083D01*
X59202Y-36250D01*
G54D10*
G36*
X55344Y-36121D02*
X55215Y-36250D01*
X54970Y-36250D01*
X54970Y-36083D01*
X55177Y-35875D01*
X55344Y-35875D01*
X55344Y-36121D01*
X55344Y-36121D01*
G37*
G54D22*
X55344Y-36121D02*
X55215Y-36250D01*
X54970Y-36250D01*
X54970Y-36083D01*
X55177Y-35875D01*
X55344Y-35875D01*
X55344Y-36121D01*
G54D10*
G36*
X66131Y-33837D02*
X65924Y-34045D01*
X65757Y-34045D01*
X65757Y-33799D01*
X65886Y-33671D01*
X66131Y-33671D01*
X66131Y-33837D01*
X66131Y-33837D01*
G37*
G54D22*
X66131Y-33837D02*
X65924Y-34045D01*
X65757Y-34045D01*
X65757Y-33799D01*
X65886Y-33671D01*
X66131Y-33671D01*
X66131Y-33837D01*
G54D10*
G36*
X65895Y-39557D02*
X65729Y-39557D01*
X65521Y-39349D01*
X65521Y-39183D01*
X65767Y-39183D01*
X65895Y-39311D01*
X65895Y-39557D01*
X65895Y-39557D01*
G37*
G54D22*
X65895Y-39557D02*
X65729Y-39557D01*
X65521Y-39349D01*
X65521Y-39183D01*
X65767Y-39183D01*
X65895Y-39311D01*
X65895Y-39557D01*
G54D10*
G36*
X65935Y-45068D02*
X65768Y-45068D01*
X65561Y-44861D01*
X65561Y-44694D01*
X65806Y-44694D01*
X65935Y-44823D01*
X65935Y-45068D01*
X65935Y-45068D01*
G37*
G54D22*
X65935Y-45068D02*
X65768Y-45068D01*
X65561Y-44861D01*
X65561Y-44694D01*
X65806Y-44694D01*
X65935Y-44823D01*
X65935Y-45068D01*
G54D10*
G36*
X66210Y-48877D02*
X66081Y-49005D01*
X65836Y-49005D01*
X65836Y-48839D01*
X66044Y-48631D01*
X66210Y-48631D01*
X66210Y-48877D01*
X66210Y-48877D01*
G37*
G54D22*
X66210Y-48877D02*
X66081Y-49005D01*
X65836Y-49005D01*
X65836Y-48839D01*
X66044Y-48631D01*
X66210Y-48631D01*
X66210Y-48877D01*
G54D10*
G36*
X61328Y-49704D02*
X61121Y-49911D01*
X60954Y-49911D01*
X60954Y-49666D01*
X61083Y-49537D01*
X61328Y-49537D01*
X61328Y-49704D01*
X61328Y-49704D01*
G37*
G54D22*
X61328Y-49704D02*
X61121Y-49911D01*
X60954Y-49911D01*
X60954Y-49666D01*
X61083Y-49537D01*
X61328Y-49537D01*
X61328Y-49704D01*
G54D10*
G36*
X64163Y-44861D02*
X63955Y-45068D01*
X63789Y-45068D01*
X63789Y-44823D01*
X63918Y-44694D01*
X64163Y-44694D01*
X64163Y-44861D01*
X64163Y-44861D01*
G37*
G54D22*
X64163Y-44861D02*
X63955Y-45068D01*
X63789Y-45068D01*
X63789Y-44823D01*
X63918Y-44694D01*
X64163Y-44694D01*
X64163Y-44861D01*
G54D10*
G36*
X60620Y-39349D02*
X60412Y-39557D01*
X60246Y-39557D01*
X60246Y-39311D01*
X60374Y-39183D01*
X60620Y-39183D01*
X60620Y-39349D01*
X60620Y-39349D01*
G37*
G54D22*
X60620Y-39349D02*
X60412Y-39557D01*
X60246Y-39557D01*
X60246Y-39311D01*
X60374Y-39183D01*
X60620Y-39183D01*
X60620Y-39349D01*
G54D10*
G36*
X60423Y-45068D02*
X60256Y-45068D01*
X60049Y-44861D01*
X60049Y-44694D01*
X60294Y-44694D01*
X60423Y-44823D01*
X60423Y-45068D01*
X60423Y-45068D01*
G37*
G54D22*
X60423Y-45068D02*
X60256Y-45068D01*
X60049Y-44861D01*
X60049Y-44694D01*
X60294Y-44694D01*
X60423Y-44823D01*
X60423Y-45068D01*
G54D10*
G36*
X58572Y-45068D02*
X58406Y-45068D01*
X58198Y-44861D01*
X58198Y-44694D01*
X58444Y-44694D01*
X58572Y-44823D01*
X58572Y-45068D01*
X58572Y-45068D01*
G37*
G54D22*
X58572Y-45068D02*
X58406Y-45068D01*
X58198Y-44861D01*
X58198Y-44694D01*
X58444Y-44694D01*
X58572Y-44823D01*
X58572Y-45068D01*
G54D10*
G36*
X55974Y-44861D02*
X55767Y-45068D01*
X55600Y-45068D01*
X55600Y-44823D01*
X55729Y-44694D01*
X55974Y-44694D01*
X55974Y-44861D01*
X55974Y-44861D01*
G37*
G54D22*
X55974Y-44861D02*
X55767Y-45068D01*
X55600Y-45068D01*
X55600Y-44823D01*
X55729Y-44694D01*
X55974Y-44694D01*
X55974Y-44861D01*
G54D10*
G36*
X54124Y-44861D02*
X53916Y-45068D01*
X53750Y-45068D01*
X53750Y-44823D01*
X53878Y-44694D01*
X54124Y-44694D01*
X54124Y-44861D01*
X54124Y-44861D01*
G37*
G54D22*
X54124Y-44861D02*
X53916Y-45068D01*
X53750Y-45068D01*
X53750Y-44823D01*
X53878Y-44694D01*
X54124Y-44694D01*
X54124Y-44861D01*
G54D10*
G36*
X50383Y-45068D02*
X50217Y-45068D01*
X50009Y-44861D01*
X50009Y-44694D01*
X50255Y-44694D01*
X50383Y-44823D01*
X50383Y-45068D01*
X50383Y-45068D01*
G37*
G54D22*
X50383Y-45068D02*
X50217Y-45068D01*
X50009Y-44861D01*
X50009Y-44694D01*
X50255Y-44694D01*
X50383Y-44823D01*
X50383Y-45068D01*
G54D10*
G36*
X48415Y-48877D02*
X48286Y-49005D01*
X48041Y-49005D01*
X48041Y-48839D01*
X48248Y-48631D01*
X48415Y-48631D01*
X48415Y-48877D01*
X48415Y-48877D01*
G37*
G54D22*
X48415Y-48877D02*
X48286Y-49005D01*
X48041Y-49005D01*
X48041Y-48839D01*
X48248Y-48631D01*
X48415Y-48631D01*
X48415Y-48877D01*
G54D10*
G36*
X53100Y-49911D02*
X52933Y-49911D01*
X52726Y-49704D01*
X52726Y-49537D01*
X52971Y-49537D01*
X53100Y-49666D01*
X53100Y-49911D01*
X53100Y-49911D01*
G37*
G54D22*
X53100Y-49911D02*
X52933Y-49911D01*
X52726Y-49704D01*
X52726Y-49537D01*
X52971Y-49537D01*
X53100Y-49666D01*
X53100Y-49911D01*
G54D10*
G36*
X53218Y-38887D02*
X53051Y-38887D01*
X52844Y-38680D01*
X52844Y-38513D01*
X53089Y-38513D01*
X53218Y-38642D01*
X53218Y-38887D01*
X53218Y-38887D01*
G37*
G54D22*
X53218Y-38887D02*
X53051Y-38887D01*
X52844Y-38680D01*
X52844Y-38513D01*
X53089Y-38513D01*
X53218Y-38642D01*
X53218Y-38887D01*
G54D10*
G36*
X59517Y-48769D02*
X59379Y-48769D01*
X59379Y-48159D01*
X59517Y-48159D01*
X59517Y-48769D01*
X59517Y-48769D01*
G37*
G54D22*
X59517Y-48769D02*
X59379Y-48769D01*
X59379Y-48159D01*
X59517Y-48159D01*
X59517Y-48769D01*
G54D10*
G36*
X55147Y-47066D02*
X55018Y-47194D01*
X54773Y-47194D01*
X54773Y-46634D01*
X54981Y-46427D01*
X55147Y-46427D01*
X55147Y-47066D01*
X55147Y-47066D01*
G37*
G54D22*
X55147Y-47066D02*
X55018Y-47194D01*
X54773Y-47194D01*
X54773Y-46634D01*
X54981Y-46427D01*
X55147Y-46427D01*
X55147Y-47066D01*
G54D10*
G36*
X48415Y-34045D02*
X48248Y-34045D01*
X48041Y-33837D01*
X48041Y-33671D01*
X48286Y-33671D01*
X48415Y-33799D01*
X48415Y-34045D01*
X48415Y-34045D01*
G37*
G54D22*
X48415Y-34045D02*
X48248Y-34045D01*
X48041Y-33837D01*
X48041Y-33671D01*
X48286Y-33671D01*
X48415Y-33799D01*
X48415Y-34045D01*
G54D10*
G36*
X55383Y-47982D02*
X55138Y-47982D01*
X55009Y-47853D01*
X55009Y-47608D01*
X55176Y-47608D01*
X55383Y-47815D01*
X55383Y-47982D01*
X55383Y-47982D01*
G37*
G54D22*
X55383Y-47982D02*
X55138Y-47982D01*
X55009Y-47853D01*
X55009Y-47608D01*
X55176Y-47608D01*
X55383Y-47815D01*
X55383Y-47982D01*
M02*
