G04 (created by PCBNEW (2013-07-07 BZR 4022)-stable) date 5/17/2016 5:11:24 PM*
%MOIN*%
G04 Gerber Fmt 3.4, Leading zero omitted, Abs format*
%FSLAX34Y34*%
G01*
G70*
G90*
G04 APERTURE LIST*
%ADD10C,0.00393701*%
%ADD11R,0.0708661X0.0708661*%
%ADD12C,0.0708661*%
%ADD13R,0.0472X0.0472*%
%ADD14C,0.0787402*%
%ADD15O,0.0787402X0.165354*%
%ADD16O,0.165354X0.0787402*%
%ADD17R,0.0865X0.0865*%
%ADD18R,0.0196X0.0865*%
%ADD19R,0.059X0.0512*%
%ADD20R,0.0512X0.059*%
%ADD21C,0.0314961*%
%ADD22C,0.00984252*%
%ADD23C,0.015748*%
%ADD24C,0.011811*%
G04 APERTURE END LIST*
G54D10*
X49212Y-31496D02*
G75*
G03X47244Y-33464I0J-1968D01*
G74*
G01*
X56102Y-31889D02*
G75*
G03X55708Y-31496I-393J0D01*
G74*
G01*
X56102Y-33464D02*
G75*
G03X56496Y-33858I393J0D01*
G74*
G01*
X57677Y-33858D02*
G75*
G03X58070Y-33464I0J393D01*
G74*
G01*
X58464Y-31496D02*
G75*
G03X58070Y-31889I0J-393D01*
G74*
G01*
X66929Y-33464D02*
G75*
G03X64960Y-31496I-1968J0D01*
G74*
G01*
X64960Y-51181D02*
G75*
G03X66929Y-49212I0J1968D01*
G74*
G01*
X47244Y-49212D02*
G75*
G03X49212Y-51181I1968J0D01*
G74*
G01*
X49212Y-31496D02*
X55708Y-31496D01*
X56102Y-31889D02*
X56102Y-33464D01*
X56496Y-33858D02*
X57677Y-33858D01*
X58070Y-33464D02*
X58070Y-31889D01*
X58464Y-31496D02*
X64960Y-31496D01*
X66929Y-33464D02*
X66929Y-49212D01*
X64960Y-51181D02*
X49212Y-51181D01*
X47244Y-49212D02*
X47244Y-33464D01*
G36*
X58019Y-42578D02*
X57657Y-42216D01*
X57740Y-42132D01*
X58102Y-42494D01*
X58019Y-42578D01*
X58019Y-42578D01*
G37*
G36*
X58158Y-42438D02*
X57796Y-42076D01*
X57879Y-41993D01*
X58242Y-42355D01*
X58158Y-42438D01*
X58158Y-42438D01*
G37*
G36*
X58297Y-42299D02*
X57935Y-41937D01*
X58019Y-41853D01*
X58381Y-42216D01*
X58297Y-42299D01*
X58297Y-42299D01*
G37*
G36*
X58436Y-42160D02*
X58074Y-41798D01*
X58157Y-41715D01*
X58519Y-42077D01*
X58436Y-42160D01*
X58436Y-42160D01*
G37*
G36*
X58575Y-42021D02*
X58213Y-41659D01*
X58297Y-41576D01*
X58659Y-41938D01*
X58575Y-42021D01*
X58575Y-42021D01*
G37*
G36*
X57601Y-42995D02*
X57239Y-42633D01*
X57322Y-42550D01*
X57684Y-42912D01*
X57601Y-42995D01*
X57601Y-42995D01*
G37*
G36*
X57740Y-42856D02*
X57378Y-42494D01*
X57462Y-42411D01*
X57824Y-42773D01*
X57740Y-42856D01*
X57740Y-42856D01*
G37*
G36*
X57879Y-42717D02*
X57517Y-42355D01*
X57601Y-42271D01*
X57963Y-42633D01*
X57879Y-42717D01*
X57879Y-42717D01*
G37*
G36*
X58854Y-40713D02*
X58770Y-40629D01*
X59132Y-40267D01*
X59216Y-40351D01*
X58854Y-40713D01*
X58854Y-40713D01*
G37*
G36*
X58715Y-40574D02*
X58631Y-40490D01*
X58993Y-40128D01*
X59077Y-40212D01*
X58715Y-40574D01*
X58715Y-40574D01*
G37*
G36*
X58575Y-40434D02*
X58492Y-40351D01*
X58854Y-39989D01*
X58937Y-40072D01*
X58575Y-40434D01*
X58575Y-40434D01*
G37*
G36*
X58436Y-40295D02*
X58353Y-40212D01*
X58715Y-39850D01*
X58798Y-39933D01*
X58436Y-40295D01*
X58436Y-40295D01*
G37*
G36*
X58297Y-40156D02*
X58213Y-40072D01*
X58575Y-39710D01*
X58659Y-39794D01*
X58297Y-40156D01*
X58297Y-40156D01*
G37*
G36*
X58157Y-40016D02*
X58074Y-39933D01*
X58436Y-39571D01*
X58519Y-39654D01*
X58157Y-40016D01*
X58157Y-40016D01*
G37*
G36*
X58019Y-39878D02*
X57935Y-39794D01*
X58297Y-39432D01*
X58381Y-39516D01*
X58019Y-39878D01*
X58019Y-39878D01*
G37*
G36*
X57879Y-39739D02*
X57796Y-39655D01*
X58158Y-39293D01*
X58242Y-39376D01*
X57879Y-39739D01*
X57879Y-39739D01*
G37*
G36*
X56850Y-39181D02*
X56488Y-38819D01*
X56571Y-38736D01*
X56933Y-39098D01*
X56850Y-39181D01*
X56850Y-39181D01*
G37*
G36*
X56711Y-39321D02*
X56349Y-38959D01*
X56432Y-38875D01*
X56794Y-39237D01*
X56711Y-39321D01*
X56711Y-39321D01*
G37*
G36*
X56571Y-39460D02*
X56209Y-39098D01*
X56293Y-39014D01*
X56655Y-39376D01*
X56571Y-39460D01*
X56571Y-39460D01*
G37*
G36*
X56432Y-39599D02*
X56070Y-39237D01*
X56153Y-39154D01*
X56515Y-39516D01*
X56432Y-39599D01*
X56432Y-39599D01*
G37*
G36*
X56293Y-39739D02*
X55931Y-39376D01*
X56014Y-39293D01*
X56376Y-39655D01*
X56293Y-39739D01*
X56293Y-39739D01*
G37*
G36*
X56153Y-39878D02*
X55791Y-39516D01*
X55875Y-39432D01*
X56237Y-39794D01*
X56153Y-39878D01*
X56153Y-39878D01*
G37*
G36*
X56015Y-40016D02*
X55653Y-39654D01*
X55736Y-39571D01*
X56098Y-39933D01*
X56015Y-40016D01*
X56015Y-40016D01*
G37*
G36*
X55876Y-40156D02*
X55514Y-39794D01*
X55597Y-39710D01*
X55959Y-40072D01*
X55876Y-40156D01*
X55876Y-40156D01*
G37*
G36*
X55040Y-41464D02*
X54956Y-41380D01*
X55318Y-41018D01*
X55402Y-41102D01*
X55040Y-41464D01*
X55040Y-41464D01*
G37*
G36*
X55179Y-41603D02*
X55096Y-41520D01*
X55458Y-41158D01*
X55541Y-41241D01*
X55179Y-41603D01*
X55179Y-41603D01*
G37*
G36*
X55318Y-41742D02*
X55235Y-41659D01*
X55597Y-41297D01*
X55680Y-41380D01*
X55318Y-41742D01*
X55318Y-41742D01*
G37*
G36*
X55458Y-41882D02*
X55374Y-41798D01*
X55736Y-41436D01*
X55820Y-41520D01*
X55458Y-41882D01*
X55458Y-41882D01*
G37*
G36*
X55597Y-42021D02*
X55514Y-41938D01*
X55876Y-41576D01*
X55959Y-41659D01*
X55597Y-42021D01*
X55597Y-42021D01*
G37*
G36*
X55736Y-42160D02*
X55653Y-42077D01*
X56015Y-41715D01*
X56098Y-41798D01*
X55736Y-42160D01*
X55736Y-42160D01*
G37*
G36*
X55875Y-42299D02*
X55791Y-42216D01*
X56153Y-41853D01*
X56237Y-41937D01*
X55875Y-42299D01*
X55875Y-42299D01*
G37*
G36*
X56014Y-42438D02*
X55931Y-42355D01*
X56293Y-41993D01*
X56376Y-42076D01*
X56014Y-42438D01*
X56014Y-42438D01*
G37*
G36*
X58715Y-41882D02*
X58353Y-41520D01*
X58436Y-41436D01*
X58798Y-41798D01*
X58715Y-41882D01*
X58715Y-41882D01*
G37*
G36*
X58854Y-41742D02*
X58492Y-41380D01*
X58575Y-41297D01*
X58937Y-41659D01*
X58854Y-41742D01*
X58854Y-41742D01*
G37*
G36*
X58993Y-41603D02*
X58631Y-41241D01*
X58715Y-41158D01*
X59077Y-41520D01*
X58993Y-41603D01*
X58993Y-41603D01*
G37*
G36*
X59132Y-41464D02*
X58770Y-41102D01*
X58854Y-41018D01*
X59216Y-41380D01*
X59132Y-41464D01*
X59132Y-41464D01*
G37*
G36*
X57740Y-39599D02*
X57657Y-39516D01*
X58019Y-39154D01*
X58102Y-39237D01*
X57740Y-39599D01*
X57740Y-39599D01*
G37*
G36*
X57601Y-39460D02*
X57517Y-39376D01*
X57879Y-39014D01*
X57963Y-39098D01*
X57601Y-39460D01*
X57601Y-39460D01*
G37*
G36*
X57462Y-39321D02*
X57378Y-39237D01*
X57740Y-38875D01*
X57824Y-38959D01*
X57462Y-39321D01*
X57462Y-39321D01*
G37*
G36*
X57322Y-39181D02*
X57239Y-39098D01*
X57601Y-38736D01*
X57684Y-38819D01*
X57322Y-39181D01*
X57322Y-39181D01*
G37*
G36*
X55736Y-40295D02*
X55374Y-39933D01*
X55458Y-39850D01*
X55820Y-40212D01*
X55736Y-40295D01*
X55736Y-40295D01*
G37*
G36*
X55597Y-40434D02*
X55235Y-40072D01*
X55318Y-39989D01*
X55680Y-40351D01*
X55597Y-40434D01*
X55597Y-40434D01*
G37*
G36*
X55458Y-40574D02*
X55096Y-40212D01*
X55179Y-40128D01*
X55541Y-40490D01*
X55458Y-40574D01*
X55458Y-40574D01*
G37*
G36*
X55318Y-40713D02*
X54956Y-40351D01*
X55040Y-40267D01*
X55402Y-40629D01*
X55318Y-40713D01*
X55318Y-40713D01*
G37*
G36*
X56153Y-42578D02*
X56070Y-42494D01*
X56432Y-42132D01*
X56515Y-42216D01*
X56153Y-42578D01*
X56153Y-42578D01*
G37*
G36*
X56293Y-42717D02*
X56209Y-42633D01*
X56571Y-42271D01*
X56655Y-42355D01*
X56293Y-42717D01*
X56293Y-42717D01*
G37*
G36*
X56432Y-42856D02*
X56349Y-42773D01*
X56711Y-42411D01*
X56794Y-42494D01*
X56432Y-42856D01*
X56432Y-42856D01*
G37*
G36*
X56571Y-42995D02*
X56488Y-42912D01*
X56850Y-42550D01*
X56933Y-42633D01*
X56571Y-42995D01*
X56571Y-42995D01*
G37*
G54D11*
X58086Y-34657D03*
G54D12*
X58086Y-35657D03*
X57086Y-34657D03*
X57086Y-35657D03*
X56086Y-34657D03*
X56086Y-35657D03*
X48318Y-38582D03*
X48318Y-33070D03*
X65854Y-33070D03*
X65854Y-38582D03*
X55830Y-44094D03*
X48318Y-44094D03*
X58342Y-44094D03*
X63854Y-44094D03*
X60342Y-38582D03*
X53830Y-49606D03*
X53830Y-44094D03*
X53830Y-38582D03*
X53830Y-33070D03*
X65854Y-44094D03*
X60342Y-49606D03*
X60342Y-44094D03*
X65854Y-49606D03*
X60342Y-33070D03*
G54D13*
X54271Y-50551D03*
X53445Y-50551D03*
G54D14*
X62322Y-39370D03*
X62618Y-39370D03*
X62893Y-39370D03*
X61574Y-41200D03*
X61574Y-41771D03*
X61574Y-40905D03*
X61574Y-41476D03*
G54D15*
X61574Y-41338D03*
G54D16*
X62755Y-39370D03*
G54D15*
X64055Y-41338D03*
G54D14*
X64055Y-41476D03*
X64055Y-40905D03*
X64055Y-41771D03*
X64055Y-41200D03*
X63188Y-39370D03*
G54D17*
X58830Y-47826D03*
G54D18*
X56457Y-47716D03*
X56772Y-47716D03*
X57086Y-47716D03*
X57400Y-47716D03*
X57715Y-47716D03*
G54D17*
X55342Y-47826D03*
X55342Y-49991D03*
X58830Y-49991D03*
G54D19*
X54330Y-40766D03*
X54330Y-41516D03*
X51181Y-39782D03*
X51181Y-40532D03*
G54D12*
X48318Y-49606D03*
X50318Y-44094D03*
G54D20*
X50727Y-41496D03*
X51477Y-41496D03*
G54D21*
X58897Y-34842D03*
X58877Y-36200D03*
X55078Y-46732D03*
X55078Y-47125D03*
X60708Y-40708D03*
X61811Y-45728D03*
X57047Y-39291D03*
X59015Y-42893D03*
X57480Y-45295D03*
X59527Y-50590D03*
X55275Y-36181D03*
X58129Y-41338D03*
X50747Y-41515D03*
X57457Y-39799D03*
X51168Y-39803D03*
X54330Y-40766D03*
X51594Y-50019D03*
X62578Y-50019D03*
X52106Y-33602D03*
X60610Y-36968D03*
X61712Y-34862D03*
X48031Y-46614D03*
X63562Y-45767D03*
X62450Y-46870D03*
X62933Y-47273D03*
X63858Y-45157D03*
X65157Y-45000D03*
X66240Y-45039D03*
X66230Y-47155D03*
X66643Y-35738D03*
X66643Y-37962D03*
X66043Y-36062D03*
X60009Y-35551D03*
X60011Y-36397D03*
X63248Y-36948D03*
X62795Y-38543D03*
X61968Y-38562D03*
X62421Y-38169D03*
X48051Y-36043D03*
X52066Y-34901D03*
X54055Y-34862D03*
X50452Y-36437D03*
X58149Y-33937D03*
X54232Y-33543D03*
X56023Y-33937D03*
X55708Y-31889D03*
X59940Y-33543D03*
X58464Y-31889D03*
X66437Y-49429D03*
X65669Y-49035D03*
X66062Y-50314D03*
X48110Y-50314D03*
X48110Y-32362D03*
X66062Y-32362D03*
X54586Y-46299D03*
X53779Y-41082D03*
X52992Y-41062D03*
X53779Y-41732D03*
X48858Y-43070D03*
X50078Y-43090D03*
X59527Y-50000D03*
X56712Y-38543D03*
X54507Y-38385D03*
X48937Y-37952D03*
X54921Y-34862D03*
X54665Y-35472D03*
X51555Y-36200D03*
X52283Y-35472D03*
X48622Y-35157D03*
X49311Y-40531D03*
X60059Y-40236D03*
X63188Y-37795D03*
X56338Y-41259D03*
X55964Y-38976D03*
X59192Y-48799D03*
X52303Y-40925D03*
X52755Y-38582D03*
X59399Y-34970D03*
X59399Y-35816D03*
X58690Y-34488D03*
X53464Y-33562D03*
X54881Y-36220D03*
X55511Y-34862D03*
X55511Y-35464D03*
X58877Y-35295D03*
X60708Y-33562D03*
X65255Y-33051D03*
X66220Y-33562D03*
X66043Y-43523D03*
X54759Y-50889D03*
X54653Y-50141D03*
X58917Y-50885D03*
X61358Y-49350D03*
X61318Y-48110D03*
X60452Y-47204D03*
X59448Y-45669D03*
X59448Y-46259D03*
X61141Y-47204D03*
X60748Y-49133D03*
X53188Y-46555D03*
X59704Y-48129D03*
X58149Y-48011D03*
X61476Y-44468D03*
X62145Y-44527D03*
X59980Y-44586D03*
X61476Y-43681D03*
X60826Y-44468D03*
X58011Y-45669D03*
X60649Y-45078D03*
X58031Y-44625D03*
X59429Y-42854D03*
X59724Y-43665D03*
X54799Y-49322D03*
X52716Y-47519D03*
X53031Y-50000D03*
X53326Y-47854D03*
X54665Y-48051D03*
X51594Y-45885D03*
X53188Y-45885D03*
X64370Y-44645D03*
X62145Y-43681D03*
X61988Y-42854D03*
X63661Y-42874D03*
X61574Y-42440D03*
X64370Y-43011D03*
X66023Y-41358D03*
X66043Y-40472D03*
X65157Y-41338D03*
X65177Y-42204D03*
X62952Y-43484D03*
X60374Y-41692D03*
X60374Y-41141D03*
X59507Y-41870D03*
X61043Y-42854D03*
X61062Y-40314D03*
X59940Y-39448D03*
X60787Y-38169D03*
X61732Y-39645D03*
X65137Y-39783D03*
X64370Y-40334D03*
X66043Y-39606D03*
X64547Y-39153D03*
X65570Y-38031D03*
X65255Y-38543D03*
X66043Y-37362D03*
X63937Y-38543D03*
X65295Y-39153D03*
X65826Y-34133D03*
X60007Y-34366D03*
X50393Y-40452D03*
X50236Y-41122D03*
X49251Y-44960D03*
X50137Y-45866D03*
X51594Y-45255D03*
X50314Y-45157D03*
X51830Y-44291D03*
X48661Y-44881D03*
X48661Y-47480D03*
X48051Y-44645D03*
X49153Y-44291D03*
X48917Y-49625D03*
X48051Y-48641D03*
X48464Y-41456D03*
X49133Y-42145D03*
X47952Y-43582D03*
X48385Y-39704D03*
X48129Y-38011D03*
X47952Y-39094D03*
X48917Y-33051D03*
X55314Y-39645D03*
X53326Y-39645D03*
X56889Y-39685D03*
X58641Y-40842D03*
X57342Y-41417D03*
X57440Y-40532D03*
X51456Y-41496D03*
X51181Y-40531D03*
X55807Y-40590D03*
X54330Y-41516D03*
X48346Y-48937D03*
X55078Y-42696D03*
X48346Y-43425D03*
X54724Y-42500D03*
X57125Y-38562D03*
X59803Y-36988D03*
X59448Y-37185D03*
X59094Y-37401D03*
X53179Y-45462D03*
X65826Y-39251D03*
X56791Y-43070D03*
X64370Y-42578D03*
X65826Y-33740D03*
X49173Y-43877D03*
X48346Y-39251D03*
X54370Y-42303D03*
X48346Y-33740D03*
X54015Y-42106D03*
X53031Y-49606D03*
X55885Y-41240D03*
X54822Y-40118D03*
X58740Y-37598D03*
X53858Y-33740D03*
X58385Y-37795D03*
X57972Y-38208D03*
X57775Y-38562D03*
X51161Y-44015D03*
X55433Y-42874D03*
X55000Y-43995D03*
X55787Y-43070D03*
X56496Y-43877D03*
X56141Y-43267D03*
X56496Y-43464D03*
X53365Y-48582D03*
X60000Y-45964D03*
X56437Y-45964D03*
X59055Y-48070D03*
X55078Y-47913D03*
X59448Y-48464D03*
X58779Y-48877D03*
X52736Y-44488D03*
X57509Y-48877D03*
X52440Y-44783D03*
G54D22*
X58897Y-34842D02*
X58897Y-34881D01*
X60295Y-37677D02*
X60295Y-36791D01*
X60295Y-36791D02*
X60295Y-36279D01*
X59645Y-38326D02*
X60275Y-37696D01*
X59645Y-40589D02*
X58993Y-41241D01*
X59645Y-40589D02*
X59645Y-38326D01*
X60275Y-37696D02*
X60295Y-37677D01*
X58897Y-34881D02*
X60295Y-36279D01*
X58877Y-36200D02*
X57629Y-36200D01*
X57629Y-36200D02*
X57086Y-35657D01*
X60091Y-37605D02*
X60091Y-36862D01*
X58854Y-40351D02*
X59448Y-39756D01*
X59448Y-39756D02*
X59448Y-38248D01*
X59448Y-38248D02*
X59458Y-38238D01*
X59458Y-38238D02*
X60091Y-37605D01*
X59429Y-36200D02*
X58877Y-36200D01*
X60091Y-36862D02*
X59429Y-36200D01*
G54D23*
X55531Y-46732D02*
X55078Y-46732D01*
X57086Y-47244D02*
X56574Y-46732D01*
X56574Y-46732D02*
X55570Y-46732D01*
X57086Y-47244D02*
X57086Y-47716D01*
X56574Y-47125D02*
X55078Y-47125D01*
X56772Y-47284D02*
X56614Y-47125D01*
X56772Y-47716D02*
X56772Y-47284D01*
X61811Y-43149D02*
X61811Y-45728D01*
X60708Y-42047D02*
X61811Y-43149D01*
X60708Y-40708D02*
X60708Y-42047D01*
G54D24*
X56711Y-38959D02*
X57043Y-39291D01*
X57043Y-39291D02*
X57047Y-39291D01*
G54D23*
X59015Y-44212D02*
X59015Y-44822D01*
X59015Y-42893D02*
X59015Y-44212D01*
X58543Y-45295D02*
X57480Y-45295D01*
X59015Y-44822D02*
X58543Y-45295D01*
G54D22*
X54271Y-50590D02*
X59527Y-50590D01*
X55275Y-36181D02*
X56948Y-37854D01*
G54D23*
X58129Y-40846D02*
X58129Y-40688D01*
X57355Y-39901D02*
X57457Y-39799D01*
X57342Y-39901D02*
X57355Y-39901D01*
X58129Y-40688D02*
X57342Y-39901D01*
X52480Y-40629D02*
X52559Y-40708D01*
X54272Y-40708D02*
X54330Y-40766D01*
X52559Y-40708D02*
X54272Y-40708D01*
G54D22*
X56948Y-37854D02*
X58031Y-37854D01*
X58267Y-38090D02*
X58031Y-37854D01*
X58267Y-38326D02*
X58267Y-38090D01*
X58267Y-38385D02*
X58267Y-38326D01*
X58267Y-38989D02*
X58267Y-38385D01*
G54D23*
X58129Y-40846D02*
X58129Y-41338D01*
G54D24*
X58436Y-41798D02*
X58129Y-41492D01*
X58129Y-41492D02*
X58129Y-41338D01*
G54D23*
X57457Y-39799D02*
X56331Y-40925D01*
X55492Y-40925D02*
X55413Y-41003D01*
G54D24*
X55179Y-41241D02*
X55413Y-41007D01*
G54D23*
X55413Y-41003D02*
X55413Y-41007D01*
X56331Y-40925D02*
X55492Y-40925D01*
G54D22*
X57879Y-39376D02*
X58267Y-38989D01*
G54D24*
X57879Y-39376D02*
X57637Y-39619D01*
G54D23*
X57630Y-39625D02*
X57637Y-39625D01*
X57637Y-39625D02*
X57637Y-39619D01*
X57457Y-39799D02*
X57630Y-39625D01*
X51181Y-39782D02*
X51142Y-39782D01*
X50727Y-40197D02*
X50727Y-41496D01*
X51142Y-39782D02*
X50727Y-40197D01*
X51181Y-39782D02*
X51632Y-39782D01*
X51632Y-39782D02*
X52480Y-40629D01*
X54330Y-40766D02*
X54703Y-40766D01*
G54D24*
X55118Y-41180D02*
X55179Y-41241D01*
G54D23*
X54703Y-40766D02*
X55118Y-41181D01*
X55118Y-41181D02*
X55118Y-41180D01*
G54D24*
X50746Y-41515D02*
X50747Y-41515D01*
X50727Y-41496D02*
X50746Y-41515D01*
X57457Y-39799D02*
X57453Y-39803D01*
X51168Y-39803D02*
X51168Y-39795D01*
X51168Y-39795D02*
X51181Y-39782D01*
G54D22*
X52106Y-33602D02*
X52106Y-33562D01*
X48031Y-46614D02*
X48051Y-46614D01*
X62933Y-46397D02*
X62933Y-47273D01*
X63858Y-45157D02*
X63858Y-45472D01*
X63858Y-45472D02*
X63562Y-45767D01*
X63562Y-45767D02*
X62933Y-46397D01*
X48051Y-36043D02*
X48051Y-37933D01*
X66043Y-49035D02*
X66437Y-49429D01*
X65748Y-48956D02*
X65669Y-49035D01*
X65669Y-49035D02*
X66043Y-49035D01*
X48070Y-50196D02*
X48110Y-50236D01*
X48110Y-50236D02*
X48110Y-50314D01*
X53779Y-41732D02*
X53779Y-41082D01*
X53011Y-41082D02*
X53779Y-41082D01*
X52992Y-41062D02*
X53011Y-41082D01*
X48858Y-43070D02*
X48877Y-43090D01*
X48877Y-43090D02*
X50078Y-43090D01*
G54D24*
X58031Y-40078D02*
X58720Y-40767D01*
X58720Y-40763D02*
X58993Y-40490D01*
X58720Y-40767D02*
X58720Y-40763D01*
X56432Y-39237D02*
X56171Y-38976D01*
X56171Y-38976D02*
X55964Y-38976D01*
G54D22*
X55964Y-38976D02*
X54527Y-38976D01*
X54527Y-38976D02*
X53858Y-39645D01*
X56712Y-38543D02*
X56692Y-38523D01*
X59940Y-39448D02*
X59842Y-39350D01*
X59842Y-39350D02*
X59842Y-38405D01*
X59842Y-38405D02*
X60255Y-37992D01*
X60255Y-37992D02*
X60610Y-37992D01*
X60610Y-37992D02*
X60787Y-38169D01*
X59940Y-39448D02*
X59940Y-39881D01*
X59940Y-39881D02*
X60059Y-40236D01*
X65570Y-38031D02*
X66043Y-37559D01*
X66043Y-37559D02*
X66043Y-37362D01*
X64547Y-39153D02*
X65295Y-39153D01*
X64370Y-40334D02*
X64370Y-39330D01*
X64370Y-39330D02*
X64547Y-39153D01*
X56889Y-39685D02*
X55984Y-40590D01*
X55984Y-40590D02*
X55807Y-40590D01*
G54D24*
X56432Y-39237D02*
X56879Y-39685D01*
X56879Y-39685D02*
X56889Y-39685D01*
G54D22*
X54507Y-38996D02*
X53858Y-39645D01*
X52755Y-38307D02*
X54881Y-36220D01*
X52755Y-38582D02*
X52755Y-38307D01*
X52755Y-39074D02*
X52755Y-38582D01*
X53326Y-39645D02*
X52755Y-39074D01*
X55507Y-34866D02*
X55511Y-34862D01*
X55511Y-35464D02*
X55507Y-34866D01*
X66220Y-33562D02*
X66220Y-33543D01*
X61318Y-48110D02*
X60748Y-48681D01*
X61318Y-47381D02*
X61318Y-48110D01*
X61141Y-47204D02*
X60452Y-47204D01*
X60393Y-47204D02*
X60452Y-47204D01*
X59448Y-46259D02*
X60393Y-47204D01*
X61141Y-47204D02*
X61318Y-47381D01*
X60748Y-48681D02*
X60748Y-49133D01*
X53188Y-46555D02*
X53444Y-46299D01*
X53444Y-46299D02*
X54586Y-46299D01*
G54D23*
X57715Y-47716D02*
X58129Y-47716D01*
X58149Y-47737D02*
X58149Y-48011D01*
X58129Y-47716D02*
X58149Y-47737D01*
G54D22*
X60649Y-45078D02*
X60767Y-45078D01*
X58011Y-45669D02*
X57992Y-45688D01*
X59429Y-42854D02*
X59724Y-43149D01*
X59724Y-43149D02*
X59724Y-43665D01*
X52716Y-47519D02*
X52716Y-49960D01*
X52992Y-49960D02*
X53031Y-50000D01*
X52716Y-49960D02*
X52992Y-49960D01*
X53188Y-45885D02*
X53208Y-45885D01*
X64370Y-44645D02*
X64370Y-44665D01*
X64370Y-43011D02*
X64370Y-44645D01*
X62145Y-43011D02*
X62145Y-43681D01*
X61988Y-42854D02*
X62145Y-43011D01*
X63799Y-43011D02*
X64370Y-43011D01*
X63799Y-43011D02*
X63661Y-42874D01*
X64370Y-43011D02*
X64251Y-43011D01*
X63976Y-42736D02*
X63976Y-42421D01*
X64251Y-43011D02*
X63976Y-42736D01*
X64370Y-43011D02*
X65177Y-42204D01*
X61062Y-40314D02*
X61062Y-40433D01*
X61043Y-40964D02*
X60984Y-41023D01*
X61043Y-40629D02*
X61043Y-40964D01*
X61062Y-40433D02*
X61043Y-40629D01*
G54D23*
X65137Y-39783D02*
X65118Y-39783D01*
X65826Y-34133D02*
X65807Y-34153D01*
G54D22*
X60011Y-34362D02*
X60011Y-34338D01*
X60007Y-34366D02*
X60011Y-34362D01*
G54D23*
X58086Y-35657D02*
X58393Y-35964D01*
X58393Y-35964D02*
X58562Y-35964D01*
G54D22*
X50393Y-40964D02*
X50393Y-40452D01*
X50236Y-41122D02*
X50393Y-40964D01*
X51594Y-45255D02*
X51594Y-45885D01*
X51574Y-45866D02*
X51594Y-45885D01*
X49251Y-44980D02*
X49251Y-44960D01*
X49251Y-44980D02*
X50137Y-45866D01*
X50137Y-45866D02*
X51574Y-45866D01*
X50314Y-45157D02*
X50944Y-45157D01*
X50118Y-44960D02*
X50314Y-45157D01*
X49251Y-44960D02*
X50118Y-44960D01*
X50944Y-45157D02*
X51830Y-44291D01*
X48661Y-44881D02*
X48661Y-47480D01*
X49173Y-44881D02*
X49251Y-44960D01*
X48661Y-44783D02*
X48661Y-44881D01*
X49153Y-44291D02*
X48661Y-44783D01*
X48661Y-44881D02*
X49173Y-44881D01*
X48051Y-48641D02*
X47736Y-48956D01*
X48917Y-49940D02*
X48917Y-49625D01*
X48661Y-50196D02*
X48917Y-49940D01*
X48070Y-50196D02*
X48661Y-50196D01*
X47736Y-49862D02*
X48070Y-50196D01*
X47736Y-48956D02*
X47736Y-49862D01*
X48051Y-44645D02*
X48051Y-46614D01*
X47696Y-43838D02*
X47696Y-44291D01*
X47696Y-44291D02*
X48051Y-44645D01*
X47952Y-43582D02*
X47696Y-43838D01*
X48858Y-43070D02*
X48681Y-42893D01*
X48858Y-42421D02*
X48858Y-43070D01*
X48385Y-41377D02*
X48464Y-41456D01*
X48385Y-39704D02*
X48385Y-41377D01*
X49133Y-42145D02*
X48858Y-42421D01*
X47933Y-43562D02*
X47952Y-43582D01*
X47933Y-42893D02*
X47933Y-43562D01*
X48681Y-42893D02*
X47933Y-42893D01*
X47952Y-39094D02*
X47952Y-39488D01*
X48169Y-39704D02*
X48385Y-39704D01*
X47952Y-39488D02*
X48169Y-39704D01*
X48129Y-38011D02*
X47696Y-38444D01*
X48051Y-37933D02*
X48129Y-38011D01*
X47696Y-38838D02*
X47952Y-39094D01*
X47696Y-38444D02*
X47696Y-38838D01*
X53326Y-39645D02*
X53858Y-39645D01*
G54D24*
X56889Y-39675D02*
X56889Y-39685D01*
X55318Y-41380D02*
X55105Y-41594D01*
X54902Y-41516D02*
X54330Y-41516D01*
X54980Y-41594D02*
X54902Y-41516D01*
X55105Y-41594D02*
X54980Y-41594D01*
X57440Y-40532D02*
X57440Y-40531D01*
X58993Y-40490D02*
X58641Y-40842D01*
X58641Y-40688D02*
X58031Y-40078D01*
X58031Y-40078D02*
X58031Y-40059D01*
X58031Y-40059D02*
X58297Y-39794D01*
X58641Y-40866D02*
X58641Y-40688D01*
X58641Y-40842D02*
X58641Y-40866D01*
X51456Y-41496D02*
X51477Y-41496D01*
X51181Y-40531D02*
X51181Y-40532D01*
X56840Y-39625D02*
X56850Y-39625D01*
G54D22*
X57462Y-42773D02*
X57263Y-42574D01*
X57263Y-41496D02*
X57342Y-41417D01*
X57263Y-42574D02*
X57263Y-41496D01*
G54D24*
X58297Y-41938D02*
X57776Y-41417D01*
X57776Y-41417D02*
X57342Y-41417D01*
X57879Y-42355D02*
X57342Y-41817D01*
X57342Y-41817D02*
X57342Y-41417D01*
G54D22*
X55078Y-42696D02*
X54389Y-43385D01*
X54389Y-43385D02*
X52677Y-43385D01*
G54D24*
X48346Y-48937D02*
X48346Y-44763D01*
G54D22*
X49055Y-43582D02*
X49074Y-43582D01*
X48818Y-43818D02*
X49055Y-43582D01*
X48366Y-44744D02*
X48818Y-44291D01*
X49074Y-43582D02*
X49212Y-43582D01*
X49527Y-43582D02*
X49212Y-43582D01*
X52480Y-43582D02*
X49527Y-43582D01*
X52677Y-43385D02*
X52480Y-43582D01*
X48818Y-44291D02*
X48818Y-43818D01*
G54D24*
X48346Y-44763D02*
X48366Y-44744D01*
G54D22*
X55512Y-42578D02*
X55196Y-42578D01*
X55196Y-42578D02*
X55078Y-42696D01*
X55512Y-42578D02*
X56014Y-42076D01*
X48318Y-49606D02*
X48307Y-49594D01*
X54724Y-42500D02*
X54035Y-43188D01*
X54035Y-43188D02*
X52598Y-43188D01*
X52401Y-43385D02*
X52598Y-43188D01*
X52401Y-43385D02*
X52342Y-43385D01*
X48346Y-44066D02*
X48318Y-44094D01*
X49035Y-43385D02*
X48385Y-43385D01*
X52401Y-43385D02*
X52342Y-43385D01*
X52342Y-43385D02*
X49035Y-43385D01*
X48385Y-43385D02*
X48346Y-43425D01*
X48405Y-43366D02*
X48346Y-43425D01*
X55432Y-42381D02*
X54980Y-42381D01*
X55432Y-42381D02*
X55876Y-41938D01*
X54842Y-42381D02*
X54724Y-42500D01*
X54980Y-42381D02*
X54842Y-42381D01*
X57462Y-38959D02*
X57125Y-38622D01*
X57125Y-38622D02*
X57125Y-38562D01*
X59803Y-37618D02*
X59803Y-36988D01*
X59251Y-38169D02*
X59803Y-37618D01*
X59251Y-39675D02*
X59251Y-38169D01*
X58715Y-40212D02*
X59251Y-39675D01*
X59448Y-37696D02*
X59448Y-37185D01*
X58575Y-40072D02*
X59055Y-39593D01*
X59055Y-39593D02*
X59055Y-38090D01*
X59055Y-38090D02*
X59448Y-37696D01*
X59094Y-37775D02*
X59094Y-37401D01*
X58436Y-39933D02*
X58858Y-39511D01*
X58858Y-39511D02*
X58858Y-38011D01*
X58858Y-38011D02*
X59094Y-37775D01*
X53366Y-45374D02*
X53267Y-45374D01*
X53267Y-45374D02*
X53179Y-45462D01*
X53562Y-45374D02*
X53366Y-45374D01*
X53179Y-45462D02*
X53169Y-45472D01*
X53523Y-45374D02*
X53562Y-45374D01*
X57795Y-44153D02*
X56791Y-45157D01*
X57795Y-43700D02*
X57795Y-44153D01*
X59212Y-42283D02*
X57795Y-43700D01*
X59212Y-41751D02*
X59212Y-42283D01*
X59212Y-41751D02*
X59212Y-41739D01*
X56574Y-45374D02*
X53562Y-45374D01*
X56791Y-45157D02*
X56574Y-45374D01*
X65413Y-38838D02*
X62106Y-38838D01*
X62106Y-38838D02*
X59212Y-41732D01*
X59212Y-41732D02*
X59212Y-41739D01*
X65413Y-38838D02*
X65826Y-39251D01*
X58854Y-41380D02*
X59212Y-41739D01*
X64370Y-42578D02*
X66338Y-40610D01*
X66338Y-40610D02*
X66338Y-40511D01*
X49173Y-43877D02*
X49881Y-44586D01*
X49881Y-44586D02*
X50118Y-44586D01*
X65826Y-33740D02*
X66338Y-34251D01*
X66338Y-40511D02*
X66338Y-34251D01*
X56791Y-43070D02*
X56791Y-42854D01*
X51003Y-44586D02*
X50118Y-44586D01*
X51003Y-44586D02*
X51594Y-43996D01*
X51594Y-43996D02*
X52933Y-43996D01*
X52933Y-43996D02*
X53523Y-44586D01*
X56200Y-44586D02*
X53523Y-44586D01*
X56791Y-43996D02*
X56200Y-44586D01*
X56791Y-42854D02*
X56791Y-43996D01*
X56791Y-42853D02*
X56791Y-42854D01*
X56791Y-42853D02*
X56711Y-42773D01*
X48346Y-39251D02*
X48385Y-39251D01*
X53681Y-42992D02*
X50413Y-42992D01*
X50413Y-42992D02*
X48720Y-41299D01*
X48720Y-41299D02*
X48720Y-39586D01*
X53681Y-42992D02*
X54370Y-42303D01*
X48385Y-39251D02*
X48720Y-39586D01*
X55736Y-41798D02*
X55350Y-42185D01*
X55350Y-42185D02*
X54625Y-42185D01*
X54625Y-42185D02*
X54488Y-42185D01*
X54488Y-42185D02*
X54370Y-42303D01*
X48346Y-33740D02*
X48346Y-37795D01*
X48346Y-37795D02*
X48366Y-37814D01*
X54015Y-42106D02*
X53326Y-42795D01*
X53326Y-42795D02*
X50492Y-42795D01*
X50492Y-42795D02*
X48917Y-41220D01*
X48917Y-41220D02*
X48917Y-38366D01*
X48917Y-38366D02*
X48366Y-37814D01*
X55597Y-41659D02*
X55268Y-41988D01*
X54133Y-41988D02*
X54015Y-42106D01*
X55268Y-41988D02*
X54133Y-41988D01*
X52844Y-44192D02*
X52352Y-44192D01*
X51889Y-44655D02*
X51889Y-44645D01*
X52352Y-44192D02*
X51889Y-44655D01*
X51889Y-44645D02*
X51889Y-46259D01*
X52854Y-44192D02*
X52844Y-44192D01*
X57086Y-43976D02*
X56279Y-44783D01*
X56279Y-44783D02*
X53444Y-44783D01*
X53444Y-44783D02*
X52854Y-44192D01*
X56899Y-42253D02*
X57086Y-42440D01*
X57086Y-42440D02*
X57086Y-42874D01*
X57086Y-42874D02*
X57086Y-43877D01*
X57086Y-43877D02*
X57086Y-43976D01*
X53031Y-47401D02*
X51889Y-46259D01*
X53031Y-49606D02*
X53031Y-47401D01*
X55885Y-41240D02*
X56899Y-42253D01*
X56899Y-42253D02*
X56948Y-42303D01*
X55738Y-41240D02*
X55885Y-41240D01*
X55458Y-41520D02*
X55738Y-41240D01*
X55179Y-40490D02*
X54822Y-40133D01*
X54822Y-40133D02*
X54822Y-40118D01*
X58740Y-37854D02*
X58740Y-37598D01*
X58661Y-37933D02*
X58740Y-37854D01*
X58661Y-39152D02*
X58661Y-37933D01*
X58661Y-39152D02*
X58158Y-39655D01*
X53877Y-34251D02*
X53858Y-34232D01*
X53858Y-34232D02*
X53858Y-33740D01*
X58385Y-37795D02*
X58090Y-37500D01*
X57125Y-37500D02*
X55590Y-35964D01*
X58090Y-37500D02*
X57125Y-37500D01*
X55590Y-35964D02*
X53877Y-34251D01*
X58464Y-39070D02*
X58464Y-37874D01*
X58464Y-37874D02*
X58385Y-37795D01*
X58464Y-38248D02*
X58464Y-37874D01*
X58464Y-37874D02*
X58385Y-37795D01*
X58464Y-39070D02*
X58464Y-38248D01*
X58019Y-39516D02*
X58464Y-39070D01*
X58070Y-38907D02*
X58070Y-38307D01*
X58070Y-38307D02*
X57972Y-38208D01*
X58070Y-38907D02*
X57740Y-39237D01*
X57814Y-38884D02*
X57601Y-39098D01*
X57814Y-38884D02*
X57814Y-38602D01*
X57814Y-38602D02*
X57775Y-38562D01*
X55433Y-42874D02*
X54724Y-43582D01*
X54724Y-43582D02*
X52755Y-43582D01*
X51377Y-43799D02*
X51161Y-44015D01*
X52539Y-43799D02*
X51377Y-43799D01*
X52755Y-43582D02*
X52539Y-43799D01*
X55495Y-42874D02*
X55433Y-42874D01*
X55495Y-42874D02*
X56153Y-42216D01*
X55787Y-43070D02*
X55000Y-43858D01*
X55000Y-43858D02*
X55000Y-43995D01*
X55787Y-42861D02*
X55787Y-43070D01*
X55787Y-42861D02*
X56293Y-42355D01*
X56141Y-43267D02*
X56141Y-43523D01*
X56141Y-43523D02*
X56496Y-43877D01*
X56141Y-42785D02*
X56141Y-43267D01*
X56141Y-42785D02*
X56432Y-42494D01*
X56338Y-42867D02*
X56571Y-42633D01*
X56496Y-43188D02*
X56496Y-43464D01*
X56338Y-43031D02*
X56496Y-43188D01*
X56338Y-42867D02*
X56338Y-43031D01*
X53365Y-48582D02*
X53346Y-48601D01*
X53445Y-50590D02*
X53267Y-50413D01*
X53346Y-50491D02*
X53445Y-50590D01*
X53346Y-48601D02*
X53346Y-50491D01*
X56437Y-45964D02*
X60000Y-45964D01*
X58830Y-47826D02*
X59055Y-48051D01*
X59055Y-48051D02*
X59055Y-48070D01*
X55342Y-47826D02*
X55256Y-47913D01*
X55256Y-47913D02*
X55078Y-47913D01*
G54D23*
X58031Y-48346D02*
X58149Y-48346D01*
X56457Y-48189D02*
X56614Y-48346D01*
X56614Y-48346D02*
X58031Y-48346D01*
X56457Y-47716D02*
X56457Y-48189D01*
X58267Y-48464D02*
X59448Y-48464D01*
X58149Y-48346D02*
X58267Y-48464D01*
G54D22*
X55039Y-49133D02*
X55157Y-49251D01*
X52755Y-44389D02*
X52588Y-44389D01*
X52086Y-44724D02*
X52086Y-46181D01*
X52086Y-46181D02*
X55039Y-49133D01*
X52421Y-44389D02*
X52086Y-44724D01*
X52588Y-44389D02*
X52421Y-44389D01*
X58405Y-49251D02*
X58779Y-48877D01*
X55157Y-49251D02*
X58405Y-49251D01*
X52755Y-44389D02*
X52755Y-44468D01*
X52755Y-44468D02*
X52736Y-44488D01*
X53464Y-44980D02*
X53366Y-44980D01*
X52775Y-44389D02*
X52755Y-44389D01*
X53366Y-44980D02*
X52775Y-44389D01*
X58818Y-42125D02*
X57381Y-43562D01*
X56614Y-44763D02*
X56397Y-44980D01*
X56397Y-44980D02*
X53464Y-44980D01*
X57381Y-43562D02*
X57381Y-43996D01*
X57381Y-43996D02*
X56614Y-44763D01*
X58818Y-42125D02*
X58818Y-41902D01*
X58818Y-41902D02*
X58575Y-41659D01*
X55137Y-48956D02*
X55246Y-49064D01*
X52874Y-46692D02*
X55137Y-48956D01*
X52874Y-45177D02*
X52874Y-46692D01*
X57322Y-49064D02*
X57509Y-48877D01*
X55246Y-49064D02*
X57322Y-49064D01*
X52480Y-44783D02*
X52874Y-45177D01*
X52440Y-44783D02*
X52480Y-44783D01*
X53366Y-45177D02*
X52874Y-45177D01*
X57578Y-43641D02*
X57578Y-44094D01*
X56692Y-44980D02*
X56496Y-45177D01*
X56496Y-45177D02*
X53366Y-45177D01*
X53366Y-45177D02*
X52972Y-45177D01*
X59015Y-42204D02*
X57578Y-43641D01*
X59015Y-41820D02*
X58715Y-41520D01*
X59015Y-42204D02*
X59015Y-41820D01*
X57578Y-44094D02*
X56692Y-44980D01*
G54D10*
G36*
X57426Y-39494D02*
X57396Y-39494D01*
X57284Y-39540D01*
X57198Y-39626D01*
X57152Y-39738D01*
X57152Y-39784D01*
X56237Y-40698D01*
X55542Y-40698D01*
X55583Y-40657D01*
X55666Y-40574D01*
X55670Y-40564D01*
X55680Y-40560D01*
X55722Y-40518D01*
X55805Y-40435D01*
X55810Y-40424D01*
X55820Y-40420D01*
X55861Y-40379D01*
X55945Y-40295D01*
X55949Y-40285D01*
X55959Y-40281D01*
X56001Y-40239D01*
X56084Y-40156D01*
X56088Y-40146D01*
X56098Y-40142D01*
X56140Y-40100D01*
X56223Y-40017D01*
X56227Y-40007D01*
X56237Y-40003D01*
X56279Y-39962D01*
X56362Y-39878D01*
X56366Y-39868D01*
X56376Y-39864D01*
X56418Y-39822D01*
X56501Y-39739D01*
X56506Y-39729D01*
X56516Y-39724D01*
X56557Y-39683D01*
X56641Y-39600D01*
X56645Y-39589D01*
X56655Y-39585D01*
X56670Y-39570D01*
X56670Y-39517D01*
X56663Y-39510D01*
X56663Y-39487D01*
X56650Y-39455D01*
X56681Y-39468D01*
X56705Y-39468D01*
X56712Y-39476D01*
X56764Y-39476D01*
X56780Y-39460D01*
X56783Y-39452D01*
X56788Y-39463D01*
X56874Y-39549D01*
X56986Y-39596D01*
X57107Y-39596D01*
X57219Y-39550D01*
X57305Y-39464D01*
X57332Y-39400D01*
X57378Y-39446D01*
X57388Y-39450D01*
X57392Y-39460D01*
X57426Y-39494D01*
X57426Y-39494D01*
G37*
G54D22*
X57426Y-39494D02*
X57396Y-39494D01*
X57284Y-39540D01*
X57198Y-39626D01*
X57152Y-39738D01*
X57152Y-39784D01*
X56237Y-40698D01*
X55542Y-40698D01*
X55583Y-40657D01*
X55666Y-40574D01*
X55670Y-40564D01*
X55680Y-40560D01*
X55722Y-40518D01*
X55805Y-40435D01*
X55810Y-40424D01*
X55820Y-40420D01*
X55861Y-40379D01*
X55945Y-40295D01*
X55949Y-40285D01*
X55959Y-40281D01*
X56001Y-40239D01*
X56084Y-40156D01*
X56088Y-40146D01*
X56098Y-40142D01*
X56140Y-40100D01*
X56223Y-40017D01*
X56227Y-40007D01*
X56237Y-40003D01*
X56279Y-39962D01*
X56362Y-39878D01*
X56366Y-39868D01*
X56376Y-39864D01*
X56418Y-39822D01*
X56501Y-39739D01*
X56506Y-39729D01*
X56516Y-39724D01*
X56557Y-39683D01*
X56641Y-39600D01*
X56645Y-39589D01*
X56655Y-39585D01*
X56670Y-39570D01*
X56670Y-39517D01*
X56663Y-39510D01*
X56663Y-39487D01*
X56650Y-39455D01*
X56681Y-39468D01*
X56705Y-39468D01*
X56712Y-39476D01*
X56764Y-39476D01*
X56780Y-39460D01*
X56783Y-39452D01*
X56788Y-39463D01*
X56874Y-39549D01*
X56986Y-39596D01*
X57107Y-39596D01*
X57219Y-39550D01*
X57305Y-39464D01*
X57332Y-39400D01*
X57378Y-39446D01*
X57388Y-39450D01*
X57392Y-39460D01*
X57426Y-39494D01*
G54D10*
G36*
X58016Y-41699D02*
X57964Y-41699D01*
X57949Y-41715D01*
X57945Y-41724D01*
X57935Y-41728D01*
X57894Y-41770D01*
X57810Y-41853D01*
X57806Y-41863D01*
X57796Y-41868D01*
X57754Y-41909D01*
X57671Y-41992D01*
X57667Y-42003D01*
X57656Y-42007D01*
X57641Y-42022D01*
X57641Y-42075D01*
X57648Y-42082D01*
X57648Y-42105D01*
X57661Y-42137D01*
X57630Y-42124D01*
X57607Y-42124D01*
X57599Y-42116D01*
X57547Y-42116D01*
X57532Y-42132D01*
X57527Y-42142D01*
X57517Y-42146D01*
X57476Y-42188D01*
X57392Y-42271D01*
X57388Y-42281D01*
X57378Y-42285D01*
X57336Y-42327D01*
X57273Y-42390D01*
X57268Y-42365D01*
X57225Y-42301D01*
X57225Y-42301D01*
X57088Y-42163D01*
X57088Y-42163D01*
X57038Y-42114D01*
X57038Y-42114D01*
X57038Y-42114D01*
X56305Y-41381D01*
X56368Y-41319D01*
X56368Y-41144D01*
X56418Y-41134D01*
X56491Y-41085D01*
X57348Y-40228D01*
X57903Y-40782D01*
X57903Y-40846D01*
X57903Y-41133D01*
X57871Y-41165D01*
X57824Y-41277D01*
X57824Y-41399D01*
X57871Y-41511D01*
X57954Y-41594D01*
X57983Y-41638D01*
X58004Y-41659D01*
X57990Y-41673D01*
X58016Y-41699D01*
X58016Y-41699D01*
G37*
G54D22*
X58016Y-41699D02*
X57964Y-41699D01*
X57949Y-41715D01*
X57945Y-41724D01*
X57935Y-41728D01*
X57894Y-41770D01*
X57810Y-41853D01*
X57806Y-41863D01*
X57796Y-41868D01*
X57754Y-41909D01*
X57671Y-41992D01*
X57667Y-42003D01*
X57656Y-42007D01*
X57641Y-42022D01*
X57641Y-42075D01*
X57648Y-42082D01*
X57648Y-42105D01*
X57661Y-42137D01*
X57630Y-42124D01*
X57607Y-42124D01*
X57599Y-42116D01*
X57547Y-42116D01*
X57532Y-42132D01*
X57527Y-42142D01*
X57517Y-42146D01*
X57476Y-42188D01*
X57392Y-42271D01*
X57388Y-42281D01*
X57378Y-42285D01*
X57336Y-42327D01*
X57273Y-42390D01*
X57268Y-42365D01*
X57225Y-42301D01*
X57225Y-42301D01*
X57088Y-42163D01*
X57088Y-42163D01*
X57038Y-42114D01*
X57038Y-42114D01*
X57038Y-42114D01*
X56305Y-41381D01*
X56368Y-41319D01*
X56368Y-41144D01*
X56418Y-41134D01*
X56491Y-41085D01*
X57348Y-40228D01*
X57903Y-40782D01*
X57903Y-40846D01*
X57903Y-41133D01*
X57871Y-41165D01*
X57824Y-41277D01*
X57824Y-41399D01*
X57871Y-41511D01*
X57954Y-41594D01*
X57983Y-41638D01*
X58004Y-41659D01*
X57990Y-41673D01*
X58016Y-41699D01*
G54D10*
G36*
X58713Y-40729D02*
X58687Y-40755D01*
X58704Y-40772D01*
X58612Y-40865D01*
X58318Y-40572D01*
X58289Y-40528D01*
X57911Y-40150D01*
X58035Y-40025D01*
X58048Y-40025D01*
X58078Y-40013D01*
X58066Y-40043D01*
X58066Y-40066D01*
X58058Y-40074D01*
X58058Y-40126D01*
X58074Y-40142D01*
X58084Y-40146D01*
X58088Y-40156D01*
X58130Y-40197D01*
X58213Y-40281D01*
X58223Y-40285D01*
X58227Y-40295D01*
X58269Y-40337D01*
X58352Y-40420D01*
X58362Y-40424D01*
X58367Y-40434D01*
X58408Y-40476D01*
X58492Y-40559D01*
X58502Y-40564D01*
X58506Y-40574D01*
X58547Y-40615D01*
X58631Y-40699D01*
X58641Y-40703D01*
X58645Y-40713D01*
X58661Y-40729D01*
X58713Y-40729D01*
X58713Y-40729D01*
G37*
G54D22*
X58713Y-40729D02*
X58687Y-40755D01*
X58704Y-40772D01*
X58612Y-40865D01*
X58318Y-40572D01*
X58289Y-40528D01*
X57911Y-40150D01*
X58035Y-40025D01*
X58048Y-40025D01*
X58078Y-40013D01*
X58066Y-40043D01*
X58066Y-40066D01*
X58058Y-40074D01*
X58058Y-40126D01*
X58074Y-40142D01*
X58084Y-40146D01*
X58088Y-40156D01*
X58130Y-40197D01*
X58213Y-40281D01*
X58223Y-40285D01*
X58227Y-40295D01*
X58269Y-40337D01*
X58352Y-40420D01*
X58362Y-40424D01*
X58367Y-40434D01*
X58408Y-40476D01*
X58492Y-40559D01*
X58502Y-40564D01*
X58506Y-40574D01*
X58547Y-40615D01*
X58631Y-40699D01*
X58641Y-40703D01*
X58645Y-40713D01*
X58661Y-40729D01*
X58713Y-40729D01*
G54D10*
G36*
X66761Y-49192D02*
X66621Y-49902D01*
X66535Y-50030D01*
X66535Y-40610D01*
X66535Y-40511D01*
X66535Y-34251D01*
X66520Y-34176D01*
X66477Y-34112D01*
X66477Y-34112D01*
X66131Y-33766D01*
X66131Y-33679D01*
X66085Y-33567D01*
X66050Y-33532D01*
X66138Y-33496D01*
X66279Y-33355D01*
X66356Y-33171D01*
X66356Y-32971D01*
X66280Y-32786D01*
X66139Y-32645D01*
X65954Y-32568D01*
X65754Y-32568D01*
X65570Y-32645D01*
X65429Y-32786D01*
X65352Y-32970D01*
X65352Y-33041D01*
X65235Y-33041D01*
X65163Y-33112D01*
X65027Y-32976D01*
X64474Y-32746D01*
X63874Y-32745D01*
X63321Y-32974D01*
X62897Y-33397D01*
X62667Y-33951D01*
X62667Y-34550D01*
X62895Y-35103D01*
X63319Y-35527D01*
X63872Y-35757D01*
X64471Y-35758D01*
X65025Y-35529D01*
X65449Y-35106D01*
X65678Y-34552D01*
X65679Y-34009D01*
X65765Y-34045D01*
X65853Y-34045D01*
X66141Y-34333D01*
X66141Y-38160D01*
X66139Y-38157D01*
X65954Y-38080D01*
X65754Y-38080D01*
X65570Y-38156D01*
X65429Y-38297D01*
X65352Y-38482D01*
X65352Y-38641D01*
X62106Y-38641D01*
X62030Y-38656D01*
X61967Y-38699D01*
X60322Y-40344D01*
X60079Y-40344D01*
X60020Y-40285D01*
X59961Y-40285D01*
X59842Y-40166D01*
X59842Y-38687D01*
X59916Y-38866D01*
X60057Y-39007D01*
X60242Y-39084D01*
X60441Y-39084D01*
X60626Y-39008D01*
X60767Y-38867D01*
X60844Y-38682D01*
X60844Y-38483D01*
X60844Y-32971D01*
X60768Y-32786D01*
X60627Y-32645D01*
X60442Y-32568D01*
X60243Y-32568D01*
X60058Y-32645D01*
X59917Y-32786D01*
X59840Y-32970D01*
X59840Y-33170D01*
X59916Y-33354D01*
X60057Y-33496D01*
X60242Y-33572D01*
X60441Y-33572D01*
X60626Y-33496D01*
X60767Y-33355D01*
X60844Y-33171D01*
X60844Y-32971D01*
X60844Y-38483D01*
X60768Y-38298D01*
X60627Y-38157D01*
X60442Y-38080D01*
X60243Y-38080D01*
X60118Y-38131D01*
X60414Y-37836D01*
X60414Y-37836D01*
X60414Y-37836D01*
X60434Y-37816D01*
X60434Y-37816D01*
X60477Y-37752D01*
X60492Y-37677D01*
X60492Y-37677D01*
X60492Y-36791D01*
X60492Y-36279D01*
X60477Y-36204D01*
X60434Y-36140D01*
X59201Y-34907D01*
X59202Y-34903D01*
X59202Y-34782D01*
X59156Y-34669D01*
X59070Y-34584D01*
X58958Y-34537D01*
X58837Y-34537D01*
X58725Y-34583D01*
X58639Y-34669D01*
X58592Y-34781D01*
X58592Y-34902D01*
X58638Y-35015D01*
X58724Y-35101D01*
X58836Y-35147D01*
X58884Y-35147D01*
X60098Y-36361D01*
X60098Y-36591D01*
X59568Y-36061D01*
X59504Y-36018D01*
X59429Y-36003D01*
X59112Y-36003D01*
X59051Y-35942D01*
X58938Y-35895D01*
X58817Y-35895D01*
X58705Y-35941D01*
X58643Y-36003D01*
X58590Y-36003D01*
X58462Y-36003D01*
X58468Y-35997D01*
X58442Y-35971D01*
X58517Y-35933D01*
X58590Y-35748D01*
X58586Y-35548D01*
X58517Y-35381D01*
X58442Y-35343D01*
X58128Y-35657D01*
X58133Y-35663D01*
X58092Y-35704D01*
X58086Y-35699D01*
X58081Y-35704D01*
X58039Y-35663D01*
X58044Y-35657D01*
X58039Y-35651D01*
X58081Y-35610D01*
X58086Y-35615D01*
X58357Y-35344D01*
X58395Y-35344D01*
X58395Y-35306D01*
X58400Y-35301D01*
X58395Y-35291D01*
X58395Y-35256D01*
X58508Y-35143D01*
X58524Y-35137D01*
X58566Y-35095D01*
X58588Y-35041D01*
X58588Y-34982D01*
X58588Y-34273D01*
X58566Y-34219D01*
X58524Y-34178D01*
X58470Y-34155D01*
X58411Y-34155D01*
X57703Y-34155D01*
X57660Y-34173D01*
X57229Y-34173D01*
X57186Y-34155D01*
X56987Y-34155D01*
X56944Y-34173D01*
X56229Y-34173D01*
X56186Y-34155D01*
X55987Y-34155D01*
X55802Y-34231D01*
X55661Y-34372D01*
X55584Y-34557D01*
X55584Y-34756D01*
X55591Y-34773D01*
X55541Y-34773D01*
X55541Y-34905D01*
X55620Y-34885D01*
X55620Y-35442D01*
X55471Y-35442D01*
X55409Y-35505D01*
X54055Y-34150D01*
X54055Y-33974D01*
X54116Y-33913D01*
X54163Y-33801D01*
X54163Y-33679D01*
X54117Y-33567D01*
X54066Y-33516D01*
X54114Y-33496D01*
X54256Y-33355D01*
X54332Y-33171D01*
X54332Y-32971D01*
X54256Y-32786D01*
X54115Y-32645D01*
X53930Y-32568D01*
X53731Y-32568D01*
X53546Y-32645D01*
X53405Y-32786D01*
X53328Y-32970D01*
X53328Y-33170D01*
X53404Y-33354D01*
X53545Y-33496D01*
X53634Y-33532D01*
X53599Y-33567D01*
X53553Y-33679D01*
X53553Y-33800D01*
X53599Y-33912D01*
X53661Y-33974D01*
X53661Y-34232D01*
X53676Y-34307D01*
X53719Y-34371D01*
X53738Y-34391D01*
X53738Y-34391D01*
X53738Y-34391D01*
X55223Y-35875D01*
X55215Y-35875D01*
X55102Y-35922D01*
X55017Y-36008D01*
X54970Y-36120D01*
X54970Y-36241D01*
X55016Y-36353D01*
X55102Y-36439D01*
X55214Y-36486D01*
X55302Y-36486D01*
X56809Y-37993D01*
X56809Y-37993D01*
X56820Y-38001D01*
X56820Y-38494D01*
X56751Y-38494D01*
X56640Y-38604D01*
X56601Y-38588D01*
X56542Y-38588D01*
X56488Y-38611D01*
X56446Y-38652D01*
X56363Y-38736D01*
X56359Y-38746D01*
X56349Y-38750D01*
X56307Y-38791D01*
X56224Y-38875D01*
X56219Y-38885D01*
X56209Y-38889D01*
X56194Y-38905D01*
X56194Y-38957D01*
X56201Y-38964D01*
X56201Y-38988D01*
X56214Y-39019D01*
X56183Y-39006D01*
X56159Y-39006D01*
X56152Y-38999D01*
X56100Y-38999D01*
X56084Y-39014D01*
X56080Y-39024D01*
X56070Y-39029D01*
X56028Y-39070D01*
X55945Y-39153D01*
X55941Y-39164D01*
X55931Y-39168D01*
X55889Y-39209D01*
X55806Y-39293D01*
X55801Y-39303D01*
X55791Y-39307D01*
X55750Y-39349D01*
X55666Y-39432D01*
X55662Y-39442D01*
X55653Y-39446D01*
X55611Y-39487D01*
X55528Y-39571D01*
X55523Y-39581D01*
X55513Y-39585D01*
X55472Y-39626D01*
X55388Y-39710D01*
X55384Y-39720D01*
X55374Y-39724D01*
X55333Y-39766D01*
X55249Y-39849D01*
X55245Y-39859D01*
X55235Y-39864D01*
X55193Y-39905D01*
X55110Y-39989D01*
X55106Y-39999D01*
X55104Y-40000D01*
X55081Y-39945D01*
X54995Y-39859D01*
X54883Y-39813D01*
X54762Y-39812D01*
X54650Y-39859D01*
X54564Y-39945D01*
X54517Y-40057D01*
X54517Y-40178D01*
X54564Y-40290D01*
X54636Y-40363D01*
X54596Y-40363D01*
X54332Y-40363D01*
X54332Y-38483D01*
X54256Y-38298D01*
X54115Y-38157D01*
X53930Y-38080D01*
X53731Y-38080D01*
X53546Y-38156D01*
X53405Y-38297D01*
X53328Y-38482D01*
X53328Y-38682D01*
X53404Y-38866D01*
X53545Y-39007D01*
X53730Y-39084D01*
X53930Y-39084D01*
X54114Y-39008D01*
X54256Y-38867D01*
X54332Y-38682D01*
X54332Y-38483D01*
X54332Y-40363D01*
X54006Y-40363D01*
X53952Y-40385D01*
X53910Y-40426D01*
X53888Y-40481D01*
X53888Y-40482D01*
X52652Y-40482D01*
X52640Y-40469D01*
X52640Y-40469D01*
X52640Y-40469D01*
X51792Y-39622D01*
X51719Y-39573D01*
X51632Y-39556D01*
X51623Y-39556D01*
X51623Y-39497D01*
X51601Y-39442D01*
X51559Y-39401D01*
X51505Y-39378D01*
X51446Y-39378D01*
X50856Y-39378D01*
X50802Y-39401D01*
X50761Y-39442D01*
X50738Y-39496D01*
X50738Y-39555D01*
X50738Y-39866D01*
X50567Y-40037D01*
X50518Y-40111D01*
X50500Y-40197D01*
X50500Y-41053D01*
X50442Y-41053D01*
X50387Y-41075D01*
X50346Y-41117D01*
X50323Y-41171D01*
X50323Y-41230D01*
X50323Y-41820D01*
X50346Y-41874D01*
X50387Y-41916D01*
X50441Y-41938D01*
X50500Y-41938D01*
X51012Y-41938D01*
X51066Y-41916D01*
X51102Y-41880D01*
X51137Y-41916D01*
X51192Y-41938D01*
X51410Y-41938D01*
X51447Y-41901D01*
X51447Y-41525D01*
X51439Y-41525D01*
X51439Y-41466D01*
X51447Y-41466D01*
X51447Y-41090D01*
X51410Y-41053D01*
X51192Y-41053D01*
X51137Y-41075D01*
X51102Y-41111D01*
X51067Y-41075D01*
X51012Y-41053D01*
X50954Y-41053D01*
X50953Y-41053D01*
X50953Y-40936D01*
X51114Y-40936D01*
X51151Y-40899D01*
X51151Y-40562D01*
X51143Y-40562D01*
X51143Y-40502D01*
X51151Y-40502D01*
X51151Y-40495D01*
X51210Y-40495D01*
X51210Y-40502D01*
X51586Y-40502D01*
X51623Y-40466D01*
X51623Y-40247D01*
X51601Y-40192D01*
X51565Y-40157D01*
X51601Y-40122D01*
X51616Y-40085D01*
X52320Y-40789D01*
X52320Y-40789D01*
X52320Y-40789D01*
X52398Y-40868D01*
X52398Y-40868D01*
X52448Y-40901D01*
X52472Y-40917D01*
X52472Y-40917D01*
X52559Y-40935D01*
X52559Y-40935D01*
X53888Y-40935D01*
X53888Y-41051D01*
X53910Y-41106D01*
X53945Y-41141D01*
X53910Y-41177D01*
X53888Y-41231D01*
X53888Y-41450D01*
X53924Y-41487D01*
X54301Y-41487D01*
X54301Y-41479D01*
X54360Y-41479D01*
X54360Y-41487D01*
X54736Y-41487D01*
X54737Y-41486D01*
X54853Y-41486D01*
X54873Y-41506D01*
X54956Y-41589D01*
X54966Y-41593D01*
X54970Y-41603D01*
X54986Y-41619D01*
X55038Y-41619D01*
X55014Y-41643D01*
X55010Y-41643D01*
X55012Y-41645D01*
X55010Y-41643D01*
X54823Y-41643D01*
X54773Y-41593D01*
X54773Y-41583D01*
X54736Y-41546D01*
X54726Y-41546D01*
X54724Y-41544D01*
X54722Y-41546D01*
X54360Y-41546D01*
X54360Y-41554D01*
X54301Y-41554D01*
X54301Y-41546D01*
X53924Y-41546D01*
X53888Y-41583D01*
X53888Y-41801D01*
X53897Y-41824D01*
X53843Y-41847D01*
X53757Y-41933D01*
X53710Y-42045D01*
X53710Y-42133D01*
X53245Y-42598D01*
X51881Y-42598D01*
X51881Y-41761D01*
X51881Y-41230D01*
X51880Y-41171D01*
X51858Y-41117D01*
X51816Y-41075D01*
X51762Y-41053D01*
X51623Y-41053D01*
X51623Y-40817D01*
X51623Y-40598D01*
X51586Y-40562D01*
X51210Y-40562D01*
X51210Y-40899D01*
X51247Y-40936D01*
X51446Y-40936D01*
X51505Y-40936D01*
X51559Y-40913D01*
X51601Y-40872D01*
X51623Y-40817D01*
X51623Y-41053D01*
X51543Y-41053D01*
X51506Y-41090D01*
X51506Y-41466D01*
X51844Y-41466D01*
X51881Y-41429D01*
X51881Y-41230D01*
X51881Y-41761D01*
X51881Y-41562D01*
X51844Y-41525D01*
X51506Y-41525D01*
X51506Y-41901D01*
X51543Y-41938D01*
X51762Y-41938D01*
X51816Y-41916D01*
X51858Y-41874D01*
X51880Y-41820D01*
X51881Y-41761D01*
X51881Y-42598D01*
X50573Y-42598D01*
X49114Y-41138D01*
X49114Y-38366D01*
X49114Y-38366D01*
X49099Y-38290D01*
X49073Y-38252D01*
X49056Y-38226D01*
X49056Y-38226D01*
X48543Y-37713D01*
X48543Y-35184D01*
X48740Y-35121D01*
X49145Y-35527D01*
X49699Y-35757D01*
X50298Y-35758D01*
X50851Y-35529D01*
X51275Y-35106D01*
X51505Y-34552D01*
X51506Y-33953D01*
X51277Y-33400D01*
X50854Y-32976D01*
X50300Y-32746D01*
X49701Y-32745D01*
X49148Y-32974D01*
X48998Y-33124D01*
X48820Y-33056D01*
X48820Y-32971D01*
X48744Y-32786D01*
X48603Y-32645D01*
X48419Y-32568D01*
X48219Y-32568D01*
X48034Y-32645D01*
X47893Y-32786D01*
X47817Y-32970D01*
X47816Y-33170D01*
X47893Y-33354D01*
X48034Y-33496D01*
X48122Y-33532D01*
X48087Y-33567D01*
X48041Y-33679D01*
X48041Y-33800D01*
X48087Y-33912D01*
X48149Y-33974D01*
X48149Y-37795D01*
X48164Y-37870D01*
X48207Y-37934D01*
X48209Y-37936D01*
X48176Y-38098D01*
X48034Y-38156D01*
X47893Y-38297D01*
X47817Y-38482D01*
X47816Y-38682D01*
X47893Y-38866D01*
X48034Y-39007D01*
X48122Y-39044D01*
X48087Y-39078D01*
X48041Y-39191D01*
X48041Y-39312D01*
X48087Y-39424D01*
X48173Y-39510D01*
X48285Y-39557D01*
X48406Y-39557D01*
X48410Y-39555D01*
X48523Y-39668D01*
X48523Y-41299D01*
X48538Y-41374D01*
X48581Y-41438D01*
X50121Y-42978D01*
X50029Y-43070D01*
X50029Y-43188D01*
X49035Y-43188D01*
X48541Y-43188D01*
X48519Y-43166D01*
X48407Y-43120D01*
X48286Y-43120D01*
X48173Y-43166D01*
X48087Y-43252D01*
X48041Y-43364D01*
X48041Y-43485D01*
X48087Y-43597D01*
X48122Y-43632D01*
X48034Y-43668D01*
X47893Y-43809D01*
X47817Y-43994D01*
X47816Y-44193D01*
X47893Y-44378D01*
X48034Y-44519D01*
X48218Y-44596D01*
X48222Y-44596D01*
X48219Y-44597D01*
X48200Y-44617D01*
X48155Y-44684D01*
X48139Y-44763D01*
X48139Y-48712D01*
X48087Y-48763D01*
X48041Y-48876D01*
X48041Y-48997D01*
X48087Y-49109D01*
X48122Y-49144D01*
X48034Y-49180D01*
X47893Y-49321D01*
X47817Y-49506D01*
X47816Y-49705D01*
X47893Y-49890D01*
X48034Y-50031D01*
X48218Y-50108D01*
X48418Y-50108D01*
X48602Y-50032D01*
X48744Y-49891D01*
X48820Y-49706D01*
X48820Y-49628D01*
X48998Y-49553D01*
X49145Y-49701D01*
X49699Y-49930D01*
X50298Y-49931D01*
X50851Y-49702D01*
X51275Y-49279D01*
X51505Y-48726D01*
X51506Y-48126D01*
X51277Y-47573D01*
X50854Y-47149D01*
X50300Y-46919D01*
X49701Y-46919D01*
X49148Y-47147D01*
X48774Y-47520D01*
X48553Y-47425D01*
X48553Y-44835D01*
X48958Y-44430D01*
X48958Y-44430D01*
X49000Y-44366D01*
X49015Y-44291D01*
X49015Y-44291D01*
X49015Y-44142D01*
X49112Y-44183D01*
X49199Y-44183D01*
X49742Y-44725D01*
X49742Y-44725D01*
X49806Y-44768D01*
X49881Y-44783D01*
X50118Y-44783D01*
X51003Y-44783D01*
X51003Y-44783D01*
X51079Y-44768D01*
X51143Y-44725D01*
X51676Y-44192D01*
X51781Y-44192D01*
X51781Y-44351D01*
X51848Y-44418D01*
X51780Y-44486D01*
X51750Y-44506D01*
X51707Y-44570D01*
X51692Y-44645D01*
X51692Y-44655D01*
X51692Y-46259D01*
X51707Y-46335D01*
X51750Y-46399D01*
X52834Y-47483D01*
X52834Y-49371D01*
X52772Y-49433D01*
X52726Y-49545D01*
X52726Y-49666D01*
X52772Y-49778D01*
X52858Y-49864D01*
X52970Y-49911D01*
X53091Y-49911D01*
X53149Y-49887D01*
X53149Y-50180D01*
X53125Y-50189D01*
X53084Y-50231D01*
X53061Y-50285D01*
X53061Y-50344D01*
X53061Y-50816D01*
X53084Y-50870D01*
X53125Y-50912D01*
X53179Y-50934D01*
X53238Y-50934D01*
X53710Y-50934D01*
X53764Y-50912D01*
X53806Y-50870D01*
X53828Y-50816D01*
X53828Y-50757D01*
X53828Y-50285D01*
X53828Y-50285D01*
X53828Y-50168D01*
X53888Y-50108D01*
X53930Y-50108D01*
X54114Y-50032D01*
X54256Y-49891D01*
X54332Y-49706D01*
X54332Y-49506D01*
X54256Y-49322D01*
X54115Y-49180D01*
X54097Y-49173D01*
X53663Y-48739D01*
X53663Y-48660D01*
X53670Y-48643D01*
X53670Y-48522D01*
X53623Y-48410D01*
X53538Y-48324D01*
X53426Y-48277D01*
X53304Y-48277D01*
X53228Y-48309D01*
X53228Y-47601D01*
X54864Y-49237D01*
X54864Y-49333D01*
X54816Y-49381D01*
X54816Y-49443D01*
X54785Y-49475D01*
X54762Y-49529D01*
X54762Y-49588D01*
X54762Y-50112D01*
X54668Y-50206D01*
X54607Y-50206D01*
X54591Y-50190D01*
X54536Y-50167D01*
X54478Y-50167D01*
X54006Y-50167D01*
X53951Y-50189D01*
X53910Y-50231D01*
X53887Y-50285D01*
X53887Y-50344D01*
X53887Y-50816D01*
X53910Y-50870D01*
X53951Y-50912D01*
X54005Y-50934D01*
X54064Y-50934D01*
X54536Y-50934D01*
X54590Y-50912D01*
X54632Y-50870D01*
X54654Y-50816D01*
X54654Y-50787D01*
X59292Y-50787D01*
X59354Y-50849D01*
X59466Y-50895D01*
X59587Y-50895D01*
X59700Y-50849D01*
X59786Y-50763D01*
X59832Y-50651D01*
X59832Y-50530D01*
X59786Y-50417D01*
X59700Y-50332D01*
X59588Y-50285D01*
X59467Y-50285D01*
X59410Y-50308D01*
X59410Y-49530D01*
X59388Y-49475D01*
X59346Y-49434D01*
X59292Y-49411D01*
X59233Y-49411D01*
X59084Y-49411D01*
X59084Y-48877D01*
X59084Y-48819D01*
X59213Y-48690D01*
X59243Y-48690D01*
X59275Y-48723D01*
X59387Y-48769D01*
X59509Y-48769D01*
X59621Y-48723D01*
X59707Y-48637D01*
X59753Y-48525D01*
X59753Y-48404D01*
X59707Y-48291D01*
X59621Y-48206D01*
X59509Y-48159D01*
X59410Y-48159D01*
X59410Y-47365D01*
X59388Y-47310D01*
X59346Y-47269D01*
X59292Y-47246D01*
X59233Y-47246D01*
X58368Y-47246D01*
X58314Y-47269D01*
X58273Y-47310D01*
X58250Y-47364D01*
X58250Y-47423D01*
X58250Y-48146D01*
X58236Y-48137D01*
X58149Y-48120D01*
X58031Y-48120D01*
X57961Y-48120D01*
X57961Y-47313D01*
X57961Y-47254D01*
X57938Y-47200D01*
X57897Y-47159D01*
X57842Y-47136D01*
X57782Y-47136D01*
X57745Y-47173D01*
X57745Y-47687D01*
X57924Y-47687D01*
X57961Y-47650D01*
X57961Y-47313D01*
X57961Y-48120D01*
X57961Y-48120D01*
X57961Y-47783D01*
X57924Y-47746D01*
X57745Y-47746D01*
X57745Y-47754D01*
X57686Y-47754D01*
X57686Y-47746D01*
X57678Y-47746D01*
X57678Y-47687D01*
X57686Y-47687D01*
X57686Y-47173D01*
X57649Y-47136D01*
X57588Y-47136D01*
X57558Y-47149D01*
X57528Y-47136D01*
X57469Y-47136D01*
X57281Y-47136D01*
X57279Y-47133D01*
X57246Y-47084D01*
X57246Y-47084D01*
X56734Y-46572D01*
X56661Y-46523D01*
X56574Y-46505D01*
X55570Y-46505D01*
X55551Y-46509D01*
X55531Y-46505D01*
X55283Y-46505D01*
X55251Y-46473D01*
X55139Y-46427D01*
X55018Y-46427D01*
X54906Y-46473D01*
X54820Y-46559D01*
X54773Y-46671D01*
X54773Y-46792D01*
X54819Y-46904D01*
X54844Y-46929D01*
X54820Y-46952D01*
X54773Y-47065D01*
X54773Y-47186D01*
X54813Y-47282D01*
X54785Y-47310D01*
X54762Y-47364D01*
X54762Y-47423D01*
X54762Y-48288D01*
X54772Y-48312D01*
X53070Y-46611D01*
X53070Y-45748D01*
X53118Y-45767D01*
X53239Y-45767D01*
X53351Y-45721D01*
X53437Y-45635D01*
X53464Y-45570D01*
X53523Y-45570D01*
X53562Y-45570D01*
X56574Y-45570D01*
X56574Y-45570D01*
X56650Y-45555D01*
X56713Y-45513D01*
X56930Y-45296D01*
X56930Y-45296D01*
X56930Y-45296D01*
X57709Y-44517D01*
X58055Y-44517D01*
X58057Y-44519D01*
X58217Y-44585D01*
X58238Y-44606D01*
X58238Y-44900D01*
X58070Y-45068D01*
X57685Y-45068D01*
X57653Y-45036D01*
X57541Y-44990D01*
X57419Y-44990D01*
X57307Y-45036D01*
X57221Y-45122D01*
X57175Y-45234D01*
X57175Y-45355D01*
X57221Y-45467D01*
X57307Y-45553D01*
X57419Y-45600D01*
X57540Y-45600D01*
X57652Y-45554D01*
X57685Y-45521D01*
X58543Y-45521D01*
X58543Y-45521D01*
X58629Y-45504D01*
X58703Y-45455D01*
X59175Y-44982D01*
X59175Y-44982D01*
X59224Y-44909D01*
X59242Y-44822D01*
X59242Y-44822D01*
X59242Y-44212D01*
X59242Y-43098D01*
X59274Y-43066D01*
X59320Y-42954D01*
X59320Y-42833D01*
X59274Y-42721D01*
X59188Y-42635D01*
X59153Y-42620D01*
X59351Y-42422D01*
X59351Y-42422D01*
X59394Y-42358D01*
X59409Y-42283D01*
X59409Y-42283D01*
X59409Y-41813D01*
X60418Y-40804D01*
X60449Y-40881D01*
X60482Y-40913D01*
X60482Y-42047D01*
X60499Y-42133D01*
X60548Y-42207D01*
X61584Y-43243D01*
X61584Y-45523D01*
X61552Y-45555D01*
X61505Y-45667D01*
X61505Y-45788D01*
X61552Y-45900D01*
X61637Y-45986D01*
X61750Y-46033D01*
X61871Y-46033D01*
X61983Y-45987D01*
X62069Y-45901D01*
X62116Y-45789D01*
X62116Y-45667D01*
X62069Y-45555D01*
X62037Y-45523D01*
X62037Y-43149D01*
X62037Y-43149D01*
X62020Y-43062D01*
X62020Y-43062D01*
X62003Y-43038D01*
X61971Y-42989D01*
X61971Y-42989D01*
X60935Y-41953D01*
X60935Y-40913D01*
X60967Y-40881D01*
X61013Y-40769D01*
X61013Y-40648D01*
X60967Y-40536D01*
X60881Y-40450D01*
X60804Y-40418D01*
X61782Y-39440D01*
X61783Y-39485D01*
X61859Y-39670D01*
X61893Y-39688D01*
X61919Y-39731D01*
X62001Y-39793D01*
X62022Y-39833D01*
X62222Y-39912D01*
X62326Y-39911D01*
X62514Y-39911D01*
X62518Y-39912D01*
X62621Y-39911D01*
X62726Y-39911D01*
X62726Y-39909D01*
X62733Y-39909D01*
X62759Y-39899D01*
X62785Y-39909D01*
X62785Y-39911D01*
X62790Y-39911D01*
X62793Y-39912D01*
X62897Y-39911D01*
X63085Y-39911D01*
X63089Y-39912D01*
X63192Y-39911D01*
X63218Y-39911D01*
X63220Y-39911D01*
X63304Y-39909D01*
X63489Y-39833D01*
X63510Y-39793D01*
X63592Y-39731D01*
X63618Y-39688D01*
X63652Y-39670D01*
X63699Y-39551D01*
X63700Y-39549D01*
X63701Y-39546D01*
X63731Y-39470D01*
X63730Y-39366D01*
X63730Y-39340D01*
X63729Y-39340D01*
X63728Y-39254D01*
X63652Y-39070D01*
X63618Y-39051D01*
X63608Y-39035D01*
X65331Y-39035D01*
X65521Y-39225D01*
X65521Y-39312D01*
X65567Y-39424D01*
X65653Y-39510D01*
X65765Y-39557D01*
X65887Y-39557D01*
X65955Y-39528D01*
X66101Y-39675D01*
X66141Y-39675D01*
X66141Y-40511D01*
X66141Y-40528D01*
X64597Y-42072D01*
X64597Y-41871D01*
X64596Y-41767D01*
X64596Y-41580D01*
X64597Y-41576D01*
X64596Y-41472D01*
X64596Y-41368D01*
X64594Y-41368D01*
X64594Y-41360D01*
X64584Y-41335D01*
X64594Y-41309D01*
X64596Y-41309D01*
X64596Y-41304D01*
X64597Y-41300D01*
X64596Y-41196D01*
X64596Y-41009D01*
X64597Y-41005D01*
X64596Y-40901D01*
X64596Y-40875D01*
X64596Y-40874D01*
X64594Y-40790D01*
X64518Y-40605D01*
X64478Y-40583D01*
X64417Y-40501D01*
X64373Y-40476D01*
X64355Y-40442D01*
X64237Y-40395D01*
X64234Y-40394D01*
X64231Y-40393D01*
X64155Y-40362D01*
X64051Y-40364D01*
X64025Y-40364D01*
X64025Y-40364D01*
X63939Y-40365D01*
X63755Y-40442D01*
X63736Y-40476D01*
X63693Y-40501D01*
X63631Y-40583D01*
X63591Y-40605D01*
X63512Y-40805D01*
X63513Y-40909D01*
X63513Y-41097D01*
X63512Y-41100D01*
X63513Y-41204D01*
X63513Y-41309D01*
X63515Y-41309D01*
X63515Y-41316D01*
X63526Y-41341D01*
X63515Y-41368D01*
X63513Y-41368D01*
X63513Y-41372D01*
X63512Y-41376D01*
X63513Y-41480D01*
X63513Y-41667D01*
X63512Y-41671D01*
X63513Y-41775D01*
X63513Y-41801D01*
X63514Y-41802D01*
X63515Y-41887D01*
X63591Y-42071D01*
X63631Y-42093D01*
X63693Y-42175D01*
X63736Y-42201D01*
X63755Y-42234D01*
X63873Y-42281D01*
X63875Y-42283D01*
X63878Y-42283D01*
X63955Y-42314D01*
X64058Y-42312D01*
X64084Y-42312D01*
X64084Y-42312D01*
X64170Y-42311D01*
X64355Y-42234D01*
X64373Y-42201D01*
X64417Y-42175D01*
X64478Y-42093D01*
X64518Y-42071D01*
X64597Y-41871D01*
X64597Y-42072D01*
X64396Y-42273D01*
X64309Y-42273D01*
X64197Y-42319D01*
X64111Y-42405D01*
X64065Y-42517D01*
X64064Y-42639D01*
X64111Y-42751D01*
X64197Y-42837D01*
X64309Y-42883D01*
X64430Y-42883D01*
X64542Y-42837D01*
X64628Y-42751D01*
X64675Y-42639D01*
X64675Y-42551D01*
X66477Y-40749D01*
X66477Y-40749D01*
X66520Y-40685D01*
X66535Y-40610D01*
X66535Y-40610D01*
X66535Y-50030D01*
X66356Y-50298D01*
X66356Y-49506D01*
X66356Y-43995D01*
X66280Y-43810D01*
X66139Y-43669D01*
X65954Y-43592D01*
X65754Y-43592D01*
X65570Y-43668D01*
X65429Y-43809D01*
X65352Y-43994D01*
X65352Y-44193D01*
X65428Y-44378D01*
X65569Y-44519D01*
X65754Y-44596D01*
X65953Y-44596D01*
X66138Y-44520D01*
X66279Y-44379D01*
X66356Y-44194D01*
X66356Y-43995D01*
X66356Y-49506D01*
X66280Y-49322D01*
X66139Y-49180D01*
X65954Y-49104D01*
X65754Y-49104D01*
X65679Y-49135D01*
X65679Y-48126D01*
X65450Y-47573D01*
X65027Y-47149D01*
X64474Y-46919D01*
X64356Y-46919D01*
X64356Y-43995D01*
X64280Y-43810D01*
X64139Y-43669D01*
X63954Y-43592D01*
X63754Y-43592D01*
X63570Y-43668D01*
X63429Y-43809D01*
X63352Y-43994D01*
X63352Y-44193D01*
X63428Y-44378D01*
X63569Y-44519D01*
X63754Y-44596D01*
X63953Y-44596D01*
X64138Y-44520D01*
X64279Y-44379D01*
X64356Y-44194D01*
X64356Y-43995D01*
X64356Y-46919D01*
X63874Y-46919D01*
X63321Y-47147D01*
X62897Y-47571D01*
X62667Y-48124D01*
X62667Y-48723D01*
X62895Y-49277D01*
X63319Y-49701D01*
X63872Y-49930D01*
X64471Y-49931D01*
X65025Y-49702D01*
X65449Y-49279D01*
X65678Y-48726D01*
X65679Y-48126D01*
X65679Y-49135D01*
X65570Y-49180D01*
X65429Y-49321D01*
X65352Y-49506D01*
X65352Y-49705D01*
X65428Y-49890D01*
X65569Y-50031D01*
X65754Y-50108D01*
X65953Y-50108D01*
X66138Y-50032D01*
X66279Y-49891D01*
X66356Y-49706D01*
X66356Y-49506D01*
X66356Y-50298D01*
X66232Y-50482D01*
X65647Y-50874D01*
X64944Y-51013D01*
X62116Y-51013D01*
X62116Y-41664D01*
X62116Y-41664D01*
X62116Y-41476D01*
X62116Y-41369D01*
X62116Y-41368D01*
X62116Y-41200D01*
X62116Y-41093D01*
X62116Y-41093D01*
X62116Y-40905D01*
X62116Y-40798D01*
X62082Y-40716D01*
X62074Y-40679D01*
X62054Y-40648D01*
X62033Y-40599D01*
X61996Y-40561D01*
X61957Y-40503D01*
X61900Y-40465D01*
X61881Y-40446D01*
X61857Y-40436D01*
X61781Y-40386D01*
X61693Y-40368D01*
X61682Y-40364D01*
X61671Y-40364D01*
X61574Y-40345D01*
X61479Y-40364D01*
X61467Y-40364D01*
X61456Y-40368D01*
X61367Y-40386D01*
X61292Y-40436D01*
X61268Y-40446D01*
X61249Y-40464D01*
X61192Y-40503D01*
X61153Y-40560D01*
X61116Y-40598D01*
X61095Y-40647D01*
X61074Y-40679D01*
X61067Y-40715D01*
X61033Y-40797D01*
X61033Y-40886D01*
X61033Y-40886D01*
X61033Y-40905D01*
X61033Y-41012D01*
X61033Y-41012D01*
X61033Y-41200D01*
X61033Y-41307D01*
X61033Y-41308D01*
X61033Y-41476D01*
X61033Y-41583D01*
X61033Y-41583D01*
X61033Y-41771D01*
X61033Y-41878D01*
X61067Y-41961D01*
X61074Y-41997D01*
X61095Y-42028D01*
X61115Y-42077D01*
X61153Y-42115D01*
X61192Y-42173D01*
X61249Y-42211D01*
X61267Y-42230D01*
X61292Y-42240D01*
X61367Y-42290D01*
X61455Y-42308D01*
X61466Y-42312D01*
X61478Y-42312D01*
X61574Y-42332D01*
X61670Y-42313D01*
X61682Y-42313D01*
X61692Y-42308D01*
X61781Y-42290D01*
X61856Y-42240D01*
X61881Y-42230D01*
X61899Y-42212D01*
X61957Y-42173D01*
X61995Y-42116D01*
X62033Y-42078D01*
X62053Y-42029D01*
X62074Y-41997D01*
X62082Y-41961D01*
X62116Y-41879D01*
X62116Y-41790D01*
X62116Y-41790D01*
X62116Y-41771D01*
X62116Y-41664D01*
X62116Y-51013D01*
X60844Y-51013D01*
X60844Y-49506D01*
X60844Y-43995D01*
X60768Y-43810D01*
X60627Y-43669D01*
X60442Y-43592D01*
X60243Y-43592D01*
X60058Y-43668D01*
X59917Y-43809D01*
X59840Y-43994D01*
X59840Y-44193D01*
X59916Y-44378D01*
X60057Y-44519D01*
X60242Y-44596D01*
X60441Y-44596D01*
X60626Y-44520D01*
X60767Y-44379D01*
X60844Y-44194D01*
X60844Y-43995D01*
X60844Y-49506D01*
X60768Y-49322D01*
X60627Y-49180D01*
X60442Y-49104D01*
X60305Y-49104D01*
X60305Y-45904D01*
X60258Y-45791D01*
X60173Y-45706D01*
X60060Y-45659D01*
X59939Y-45659D01*
X59827Y-45705D01*
X59765Y-45767D01*
X56671Y-45767D01*
X56610Y-45706D01*
X56497Y-45659D01*
X56376Y-45659D01*
X56264Y-45705D01*
X56178Y-45791D01*
X56131Y-45903D01*
X56131Y-46024D01*
X56178Y-46137D01*
X56263Y-46223D01*
X56376Y-46269D01*
X56497Y-46269D01*
X56609Y-46223D01*
X56671Y-46161D01*
X59765Y-46161D01*
X59826Y-46223D01*
X59939Y-46269D01*
X60060Y-46269D01*
X60172Y-46223D01*
X60258Y-46137D01*
X60305Y-46025D01*
X60305Y-45904D01*
X60305Y-49104D01*
X60243Y-49104D01*
X60058Y-49180D01*
X59917Y-49321D01*
X59840Y-49506D01*
X59840Y-49705D01*
X59916Y-49890D01*
X60057Y-50031D01*
X60242Y-50108D01*
X60441Y-50108D01*
X60626Y-50032D01*
X60767Y-49891D01*
X60844Y-49706D01*
X60844Y-49506D01*
X60844Y-51013D01*
X49232Y-51013D01*
X48522Y-50873D01*
X47942Y-50484D01*
X47550Y-49899D01*
X47411Y-49196D01*
X47411Y-33480D01*
X47550Y-32777D01*
X47942Y-32192D01*
X48522Y-31803D01*
X49232Y-31663D01*
X55692Y-31663D01*
X55793Y-31683D01*
X55866Y-31731D01*
X55914Y-31804D01*
X55935Y-31906D01*
X55935Y-33464D01*
X55938Y-33480D01*
X55938Y-33497D01*
X55968Y-33647D01*
X55992Y-33708D01*
X55993Y-33708D01*
X56078Y-33835D01*
X56124Y-33882D01*
X56125Y-33882D01*
X56252Y-33967D01*
X56252Y-33967D01*
X56312Y-33992D01*
X56463Y-34022D01*
X56479Y-34022D01*
X56496Y-34025D01*
X57677Y-34025D01*
X57693Y-34022D01*
X57709Y-34022D01*
X57860Y-33992D01*
X57920Y-33967D01*
X57921Y-33967D01*
X58048Y-33882D01*
X58094Y-33836D01*
X58094Y-33835D01*
X58179Y-33708D01*
X58180Y-33708D01*
X58205Y-33647D01*
X58234Y-33497D01*
X58234Y-33481D01*
X58238Y-33464D01*
X58238Y-31906D01*
X58258Y-31804D01*
X58306Y-31732D01*
X58379Y-31683D01*
X58481Y-31663D01*
X64944Y-31663D01*
X65647Y-31802D01*
X66232Y-32194D01*
X66621Y-32774D01*
X66761Y-33484D01*
X66761Y-49192D01*
X66761Y-49192D01*
G37*
G54D22*
X66761Y-49192D02*
X66621Y-49902D01*
X66535Y-50030D01*
X66535Y-40610D01*
X66535Y-40511D01*
X66535Y-34251D01*
X66520Y-34176D01*
X66477Y-34112D01*
X66477Y-34112D01*
X66131Y-33766D01*
X66131Y-33679D01*
X66085Y-33567D01*
X66050Y-33532D01*
X66138Y-33496D01*
X66279Y-33355D01*
X66356Y-33171D01*
X66356Y-32971D01*
X66280Y-32786D01*
X66139Y-32645D01*
X65954Y-32568D01*
X65754Y-32568D01*
X65570Y-32645D01*
X65429Y-32786D01*
X65352Y-32970D01*
X65352Y-33041D01*
X65235Y-33041D01*
X65163Y-33112D01*
X65027Y-32976D01*
X64474Y-32746D01*
X63874Y-32745D01*
X63321Y-32974D01*
X62897Y-33397D01*
X62667Y-33951D01*
X62667Y-34550D01*
X62895Y-35103D01*
X63319Y-35527D01*
X63872Y-35757D01*
X64471Y-35758D01*
X65025Y-35529D01*
X65449Y-35106D01*
X65678Y-34552D01*
X65679Y-34009D01*
X65765Y-34045D01*
X65853Y-34045D01*
X66141Y-34333D01*
X66141Y-38160D01*
X66139Y-38157D01*
X65954Y-38080D01*
X65754Y-38080D01*
X65570Y-38156D01*
X65429Y-38297D01*
X65352Y-38482D01*
X65352Y-38641D01*
X62106Y-38641D01*
X62030Y-38656D01*
X61967Y-38699D01*
X60322Y-40344D01*
X60079Y-40344D01*
X60020Y-40285D01*
X59961Y-40285D01*
X59842Y-40166D01*
X59842Y-38687D01*
X59916Y-38866D01*
X60057Y-39007D01*
X60242Y-39084D01*
X60441Y-39084D01*
X60626Y-39008D01*
X60767Y-38867D01*
X60844Y-38682D01*
X60844Y-38483D01*
X60844Y-32971D01*
X60768Y-32786D01*
X60627Y-32645D01*
X60442Y-32568D01*
X60243Y-32568D01*
X60058Y-32645D01*
X59917Y-32786D01*
X59840Y-32970D01*
X59840Y-33170D01*
X59916Y-33354D01*
X60057Y-33496D01*
X60242Y-33572D01*
X60441Y-33572D01*
X60626Y-33496D01*
X60767Y-33355D01*
X60844Y-33171D01*
X60844Y-32971D01*
X60844Y-38483D01*
X60768Y-38298D01*
X60627Y-38157D01*
X60442Y-38080D01*
X60243Y-38080D01*
X60118Y-38131D01*
X60414Y-37836D01*
X60414Y-37836D01*
X60414Y-37836D01*
X60434Y-37816D01*
X60434Y-37816D01*
X60477Y-37752D01*
X60492Y-37677D01*
X60492Y-37677D01*
X60492Y-36791D01*
X60492Y-36279D01*
X60477Y-36204D01*
X60434Y-36140D01*
X59201Y-34907D01*
X59202Y-34903D01*
X59202Y-34782D01*
X59156Y-34669D01*
X59070Y-34584D01*
X58958Y-34537D01*
X58837Y-34537D01*
X58725Y-34583D01*
X58639Y-34669D01*
X58592Y-34781D01*
X58592Y-34902D01*
X58638Y-35015D01*
X58724Y-35101D01*
X58836Y-35147D01*
X58884Y-35147D01*
X60098Y-36361D01*
X60098Y-36591D01*
X59568Y-36061D01*
X59504Y-36018D01*
X59429Y-36003D01*
X59112Y-36003D01*
X59051Y-35942D01*
X58938Y-35895D01*
X58817Y-35895D01*
X58705Y-35941D01*
X58643Y-36003D01*
X58590Y-36003D01*
X58462Y-36003D01*
X58468Y-35997D01*
X58442Y-35971D01*
X58517Y-35933D01*
X58590Y-35748D01*
X58586Y-35548D01*
X58517Y-35381D01*
X58442Y-35343D01*
X58128Y-35657D01*
X58133Y-35663D01*
X58092Y-35704D01*
X58086Y-35699D01*
X58081Y-35704D01*
X58039Y-35663D01*
X58044Y-35657D01*
X58039Y-35651D01*
X58081Y-35610D01*
X58086Y-35615D01*
X58357Y-35344D01*
X58395Y-35344D01*
X58395Y-35306D01*
X58400Y-35301D01*
X58395Y-35291D01*
X58395Y-35256D01*
X58508Y-35143D01*
X58524Y-35137D01*
X58566Y-35095D01*
X58588Y-35041D01*
X58588Y-34982D01*
X58588Y-34273D01*
X58566Y-34219D01*
X58524Y-34178D01*
X58470Y-34155D01*
X58411Y-34155D01*
X57703Y-34155D01*
X57660Y-34173D01*
X57229Y-34173D01*
X57186Y-34155D01*
X56987Y-34155D01*
X56944Y-34173D01*
X56229Y-34173D01*
X56186Y-34155D01*
X55987Y-34155D01*
X55802Y-34231D01*
X55661Y-34372D01*
X55584Y-34557D01*
X55584Y-34756D01*
X55591Y-34773D01*
X55541Y-34773D01*
X55541Y-34905D01*
X55620Y-34885D01*
X55620Y-35442D01*
X55471Y-35442D01*
X55409Y-35505D01*
X54055Y-34150D01*
X54055Y-33974D01*
X54116Y-33913D01*
X54163Y-33801D01*
X54163Y-33679D01*
X54117Y-33567D01*
X54066Y-33516D01*
X54114Y-33496D01*
X54256Y-33355D01*
X54332Y-33171D01*
X54332Y-32971D01*
X54256Y-32786D01*
X54115Y-32645D01*
X53930Y-32568D01*
X53731Y-32568D01*
X53546Y-32645D01*
X53405Y-32786D01*
X53328Y-32970D01*
X53328Y-33170D01*
X53404Y-33354D01*
X53545Y-33496D01*
X53634Y-33532D01*
X53599Y-33567D01*
X53553Y-33679D01*
X53553Y-33800D01*
X53599Y-33912D01*
X53661Y-33974D01*
X53661Y-34232D01*
X53676Y-34307D01*
X53719Y-34371D01*
X53738Y-34391D01*
X53738Y-34391D01*
X53738Y-34391D01*
X55223Y-35875D01*
X55215Y-35875D01*
X55102Y-35922D01*
X55017Y-36008D01*
X54970Y-36120D01*
X54970Y-36241D01*
X55016Y-36353D01*
X55102Y-36439D01*
X55214Y-36486D01*
X55302Y-36486D01*
X56809Y-37993D01*
X56809Y-37993D01*
X56820Y-38001D01*
X56820Y-38494D01*
X56751Y-38494D01*
X56640Y-38604D01*
X56601Y-38588D01*
X56542Y-38588D01*
X56488Y-38611D01*
X56446Y-38652D01*
X56363Y-38736D01*
X56359Y-38746D01*
X56349Y-38750D01*
X56307Y-38791D01*
X56224Y-38875D01*
X56219Y-38885D01*
X56209Y-38889D01*
X56194Y-38905D01*
X56194Y-38957D01*
X56201Y-38964D01*
X56201Y-38988D01*
X56214Y-39019D01*
X56183Y-39006D01*
X56159Y-39006D01*
X56152Y-38999D01*
X56100Y-38999D01*
X56084Y-39014D01*
X56080Y-39024D01*
X56070Y-39029D01*
X56028Y-39070D01*
X55945Y-39153D01*
X55941Y-39164D01*
X55931Y-39168D01*
X55889Y-39209D01*
X55806Y-39293D01*
X55801Y-39303D01*
X55791Y-39307D01*
X55750Y-39349D01*
X55666Y-39432D01*
X55662Y-39442D01*
X55653Y-39446D01*
X55611Y-39487D01*
X55528Y-39571D01*
X55523Y-39581D01*
X55513Y-39585D01*
X55472Y-39626D01*
X55388Y-39710D01*
X55384Y-39720D01*
X55374Y-39724D01*
X55333Y-39766D01*
X55249Y-39849D01*
X55245Y-39859D01*
X55235Y-39864D01*
X55193Y-39905D01*
X55110Y-39989D01*
X55106Y-39999D01*
X55104Y-40000D01*
X55081Y-39945D01*
X54995Y-39859D01*
X54883Y-39813D01*
X54762Y-39812D01*
X54650Y-39859D01*
X54564Y-39945D01*
X54517Y-40057D01*
X54517Y-40178D01*
X54564Y-40290D01*
X54636Y-40363D01*
X54596Y-40363D01*
X54332Y-40363D01*
X54332Y-38483D01*
X54256Y-38298D01*
X54115Y-38157D01*
X53930Y-38080D01*
X53731Y-38080D01*
X53546Y-38156D01*
X53405Y-38297D01*
X53328Y-38482D01*
X53328Y-38682D01*
X53404Y-38866D01*
X53545Y-39007D01*
X53730Y-39084D01*
X53930Y-39084D01*
X54114Y-39008D01*
X54256Y-38867D01*
X54332Y-38682D01*
X54332Y-38483D01*
X54332Y-40363D01*
X54006Y-40363D01*
X53952Y-40385D01*
X53910Y-40426D01*
X53888Y-40481D01*
X53888Y-40482D01*
X52652Y-40482D01*
X52640Y-40469D01*
X52640Y-40469D01*
X52640Y-40469D01*
X51792Y-39622D01*
X51719Y-39573D01*
X51632Y-39556D01*
X51623Y-39556D01*
X51623Y-39497D01*
X51601Y-39442D01*
X51559Y-39401D01*
X51505Y-39378D01*
X51446Y-39378D01*
X50856Y-39378D01*
X50802Y-39401D01*
X50761Y-39442D01*
X50738Y-39496D01*
X50738Y-39555D01*
X50738Y-39866D01*
X50567Y-40037D01*
X50518Y-40111D01*
X50500Y-40197D01*
X50500Y-41053D01*
X50442Y-41053D01*
X50387Y-41075D01*
X50346Y-41117D01*
X50323Y-41171D01*
X50323Y-41230D01*
X50323Y-41820D01*
X50346Y-41874D01*
X50387Y-41916D01*
X50441Y-41938D01*
X50500Y-41938D01*
X51012Y-41938D01*
X51066Y-41916D01*
X51102Y-41880D01*
X51137Y-41916D01*
X51192Y-41938D01*
X51410Y-41938D01*
X51447Y-41901D01*
X51447Y-41525D01*
X51439Y-41525D01*
X51439Y-41466D01*
X51447Y-41466D01*
X51447Y-41090D01*
X51410Y-41053D01*
X51192Y-41053D01*
X51137Y-41075D01*
X51102Y-41111D01*
X51067Y-41075D01*
X51012Y-41053D01*
X50954Y-41053D01*
X50953Y-41053D01*
X50953Y-40936D01*
X51114Y-40936D01*
X51151Y-40899D01*
X51151Y-40562D01*
X51143Y-40562D01*
X51143Y-40502D01*
X51151Y-40502D01*
X51151Y-40495D01*
X51210Y-40495D01*
X51210Y-40502D01*
X51586Y-40502D01*
X51623Y-40466D01*
X51623Y-40247D01*
X51601Y-40192D01*
X51565Y-40157D01*
X51601Y-40122D01*
X51616Y-40085D01*
X52320Y-40789D01*
X52320Y-40789D01*
X52320Y-40789D01*
X52398Y-40868D01*
X52398Y-40868D01*
X52448Y-40901D01*
X52472Y-40917D01*
X52472Y-40917D01*
X52559Y-40935D01*
X52559Y-40935D01*
X53888Y-40935D01*
X53888Y-41051D01*
X53910Y-41106D01*
X53945Y-41141D01*
X53910Y-41177D01*
X53888Y-41231D01*
X53888Y-41450D01*
X53924Y-41487D01*
X54301Y-41487D01*
X54301Y-41479D01*
X54360Y-41479D01*
X54360Y-41487D01*
X54736Y-41487D01*
X54737Y-41486D01*
X54853Y-41486D01*
X54873Y-41506D01*
X54956Y-41589D01*
X54966Y-41593D01*
X54970Y-41603D01*
X54986Y-41619D01*
X55038Y-41619D01*
X55014Y-41643D01*
X55010Y-41643D01*
X55012Y-41645D01*
X55010Y-41643D01*
X54823Y-41643D01*
X54773Y-41593D01*
X54773Y-41583D01*
X54736Y-41546D01*
X54726Y-41546D01*
X54724Y-41544D01*
X54722Y-41546D01*
X54360Y-41546D01*
X54360Y-41554D01*
X54301Y-41554D01*
X54301Y-41546D01*
X53924Y-41546D01*
X53888Y-41583D01*
X53888Y-41801D01*
X53897Y-41824D01*
X53843Y-41847D01*
X53757Y-41933D01*
X53710Y-42045D01*
X53710Y-42133D01*
X53245Y-42598D01*
X51881Y-42598D01*
X51881Y-41761D01*
X51881Y-41230D01*
X51880Y-41171D01*
X51858Y-41117D01*
X51816Y-41075D01*
X51762Y-41053D01*
X51623Y-41053D01*
X51623Y-40817D01*
X51623Y-40598D01*
X51586Y-40562D01*
X51210Y-40562D01*
X51210Y-40899D01*
X51247Y-40936D01*
X51446Y-40936D01*
X51505Y-40936D01*
X51559Y-40913D01*
X51601Y-40872D01*
X51623Y-40817D01*
X51623Y-41053D01*
X51543Y-41053D01*
X51506Y-41090D01*
X51506Y-41466D01*
X51844Y-41466D01*
X51881Y-41429D01*
X51881Y-41230D01*
X51881Y-41761D01*
X51881Y-41562D01*
X51844Y-41525D01*
X51506Y-41525D01*
X51506Y-41901D01*
X51543Y-41938D01*
X51762Y-41938D01*
X51816Y-41916D01*
X51858Y-41874D01*
X51880Y-41820D01*
X51881Y-41761D01*
X51881Y-42598D01*
X50573Y-42598D01*
X49114Y-41138D01*
X49114Y-38366D01*
X49114Y-38366D01*
X49099Y-38290D01*
X49073Y-38252D01*
X49056Y-38226D01*
X49056Y-38226D01*
X48543Y-37713D01*
X48543Y-35184D01*
X48740Y-35121D01*
X49145Y-35527D01*
X49699Y-35757D01*
X50298Y-35758D01*
X50851Y-35529D01*
X51275Y-35106D01*
X51505Y-34552D01*
X51506Y-33953D01*
X51277Y-33400D01*
X50854Y-32976D01*
X50300Y-32746D01*
X49701Y-32745D01*
X49148Y-32974D01*
X48998Y-33124D01*
X48820Y-33056D01*
X48820Y-32971D01*
X48744Y-32786D01*
X48603Y-32645D01*
X48419Y-32568D01*
X48219Y-32568D01*
X48034Y-32645D01*
X47893Y-32786D01*
X47817Y-32970D01*
X47816Y-33170D01*
X47893Y-33354D01*
X48034Y-33496D01*
X48122Y-33532D01*
X48087Y-33567D01*
X48041Y-33679D01*
X48041Y-33800D01*
X48087Y-33912D01*
X48149Y-33974D01*
X48149Y-37795D01*
X48164Y-37870D01*
X48207Y-37934D01*
X48209Y-37936D01*
X48176Y-38098D01*
X48034Y-38156D01*
X47893Y-38297D01*
X47817Y-38482D01*
X47816Y-38682D01*
X47893Y-38866D01*
X48034Y-39007D01*
X48122Y-39044D01*
X48087Y-39078D01*
X48041Y-39191D01*
X48041Y-39312D01*
X48087Y-39424D01*
X48173Y-39510D01*
X48285Y-39557D01*
X48406Y-39557D01*
X48410Y-39555D01*
X48523Y-39668D01*
X48523Y-41299D01*
X48538Y-41374D01*
X48581Y-41438D01*
X50121Y-42978D01*
X50029Y-43070D01*
X50029Y-43188D01*
X49035Y-43188D01*
X48541Y-43188D01*
X48519Y-43166D01*
X48407Y-43120D01*
X48286Y-43120D01*
X48173Y-43166D01*
X48087Y-43252D01*
X48041Y-43364D01*
X48041Y-43485D01*
X48087Y-43597D01*
X48122Y-43632D01*
X48034Y-43668D01*
X47893Y-43809D01*
X47817Y-43994D01*
X47816Y-44193D01*
X47893Y-44378D01*
X48034Y-44519D01*
X48218Y-44596D01*
X48222Y-44596D01*
X48219Y-44597D01*
X48200Y-44617D01*
X48155Y-44684D01*
X48139Y-44763D01*
X48139Y-48712D01*
X48087Y-48763D01*
X48041Y-48876D01*
X48041Y-48997D01*
X48087Y-49109D01*
X48122Y-49144D01*
X48034Y-49180D01*
X47893Y-49321D01*
X47817Y-49506D01*
X47816Y-49705D01*
X47893Y-49890D01*
X48034Y-50031D01*
X48218Y-50108D01*
X48418Y-50108D01*
X48602Y-50032D01*
X48744Y-49891D01*
X48820Y-49706D01*
X48820Y-49628D01*
X48998Y-49553D01*
X49145Y-49701D01*
X49699Y-49930D01*
X50298Y-49931D01*
X50851Y-49702D01*
X51275Y-49279D01*
X51505Y-48726D01*
X51506Y-48126D01*
X51277Y-47573D01*
X50854Y-47149D01*
X50300Y-46919D01*
X49701Y-46919D01*
X49148Y-47147D01*
X48774Y-47520D01*
X48553Y-47425D01*
X48553Y-44835D01*
X48958Y-44430D01*
X48958Y-44430D01*
X49000Y-44366D01*
X49015Y-44291D01*
X49015Y-44291D01*
X49015Y-44142D01*
X49112Y-44183D01*
X49199Y-44183D01*
X49742Y-44725D01*
X49742Y-44725D01*
X49806Y-44768D01*
X49881Y-44783D01*
X50118Y-44783D01*
X51003Y-44783D01*
X51003Y-44783D01*
X51079Y-44768D01*
X51143Y-44725D01*
X51676Y-44192D01*
X51781Y-44192D01*
X51781Y-44351D01*
X51848Y-44418D01*
X51780Y-44486D01*
X51750Y-44506D01*
X51707Y-44570D01*
X51692Y-44645D01*
X51692Y-44655D01*
X51692Y-46259D01*
X51707Y-46335D01*
X51750Y-46399D01*
X52834Y-47483D01*
X52834Y-49371D01*
X52772Y-49433D01*
X52726Y-49545D01*
X52726Y-49666D01*
X52772Y-49778D01*
X52858Y-49864D01*
X52970Y-49911D01*
X53091Y-49911D01*
X53149Y-49887D01*
X53149Y-50180D01*
X53125Y-50189D01*
X53084Y-50231D01*
X53061Y-50285D01*
X53061Y-50344D01*
X53061Y-50816D01*
X53084Y-50870D01*
X53125Y-50912D01*
X53179Y-50934D01*
X53238Y-50934D01*
X53710Y-50934D01*
X53764Y-50912D01*
X53806Y-50870D01*
X53828Y-50816D01*
X53828Y-50757D01*
X53828Y-50285D01*
X53828Y-50285D01*
X53828Y-50168D01*
X53888Y-50108D01*
X53930Y-50108D01*
X54114Y-50032D01*
X54256Y-49891D01*
X54332Y-49706D01*
X54332Y-49506D01*
X54256Y-49322D01*
X54115Y-49180D01*
X54097Y-49173D01*
X53663Y-48739D01*
X53663Y-48660D01*
X53670Y-48643D01*
X53670Y-48522D01*
X53623Y-48410D01*
X53538Y-48324D01*
X53426Y-48277D01*
X53304Y-48277D01*
X53228Y-48309D01*
X53228Y-47601D01*
X54864Y-49237D01*
X54864Y-49333D01*
X54816Y-49381D01*
X54816Y-49443D01*
X54785Y-49475D01*
X54762Y-49529D01*
X54762Y-49588D01*
X54762Y-50112D01*
X54668Y-50206D01*
X54607Y-50206D01*
X54591Y-50190D01*
X54536Y-50167D01*
X54478Y-50167D01*
X54006Y-50167D01*
X53951Y-50189D01*
X53910Y-50231D01*
X53887Y-50285D01*
X53887Y-50344D01*
X53887Y-50816D01*
X53910Y-50870D01*
X53951Y-50912D01*
X54005Y-50934D01*
X54064Y-50934D01*
X54536Y-50934D01*
X54590Y-50912D01*
X54632Y-50870D01*
X54654Y-50816D01*
X54654Y-50787D01*
X59292Y-50787D01*
X59354Y-50849D01*
X59466Y-50895D01*
X59587Y-50895D01*
X59700Y-50849D01*
X59786Y-50763D01*
X59832Y-50651D01*
X59832Y-50530D01*
X59786Y-50417D01*
X59700Y-50332D01*
X59588Y-50285D01*
X59467Y-50285D01*
X59410Y-50308D01*
X59410Y-49530D01*
X59388Y-49475D01*
X59346Y-49434D01*
X59292Y-49411D01*
X59233Y-49411D01*
X59084Y-49411D01*
X59084Y-48877D01*
X59084Y-48819D01*
X59213Y-48690D01*
X59243Y-48690D01*
X59275Y-48723D01*
X59387Y-48769D01*
X59509Y-48769D01*
X59621Y-48723D01*
X59707Y-48637D01*
X59753Y-48525D01*
X59753Y-48404D01*
X59707Y-48291D01*
X59621Y-48206D01*
X59509Y-48159D01*
X59410Y-48159D01*
X59410Y-47365D01*
X59388Y-47310D01*
X59346Y-47269D01*
X59292Y-47246D01*
X59233Y-47246D01*
X58368Y-47246D01*
X58314Y-47269D01*
X58273Y-47310D01*
X58250Y-47364D01*
X58250Y-47423D01*
X58250Y-48146D01*
X58236Y-48137D01*
X58149Y-48120D01*
X58031Y-48120D01*
X57961Y-48120D01*
X57961Y-47313D01*
X57961Y-47254D01*
X57938Y-47200D01*
X57897Y-47159D01*
X57842Y-47136D01*
X57782Y-47136D01*
X57745Y-47173D01*
X57745Y-47687D01*
X57924Y-47687D01*
X57961Y-47650D01*
X57961Y-47313D01*
X57961Y-48120D01*
X57961Y-48120D01*
X57961Y-47783D01*
X57924Y-47746D01*
X57745Y-47746D01*
X57745Y-47754D01*
X57686Y-47754D01*
X57686Y-47746D01*
X57678Y-47746D01*
X57678Y-47687D01*
X57686Y-47687D01*
X57686Y-47173D01*
X57649Y-47136D01*
X57588Y-47136D01*
X57558Y-47149D01*
X57528Y-47136D01*
X57469Y-47136D01*
X57281Y-47136D01*
X57279Y-47133D01*
X57246Y-47084D01*
X57246Y-47084D01*
X56734Y-46572D01*
X56661Y-46523D01*
X56574Y-46505D01*
X55570Y-46505D01*
X55551Y-46509D01*
X55531Y-46505D01*
X55283Y-46505D01*
X55251Y-46473D01*
X55139Y-46427D01*
X55018Y-46427D01*
X54906Y-46473D01*
X54820Y-46559D01*
X54773Y-46671D01*
X54773Y-46792D01*
X54819Y-46904D01*
X54844Y-46929D01*
X54820Y-46952D01*
X54773Y-47065D01*
X54773Y-47186D01*
X54813Y-47282D01*
X54785Y-47310D01*
X54762Y-47364D01*
X54762Y-47423D01*
X54762Y-48288D01*
X54772Y-48312D01*
X53070Y-46611D01*
X53070Y-45748D01*
X53118Y-45767D01*
X53239Y-45767D01*
X53351Y-45721D01*
X53437Y-45635D01*
X53464Y-45570D01*
X53523Y-45570D01*
X53562Y-45570D01*
X56574Y-45570D01*
X56574Y-45570D01*
X56650Y-45555D01*
X56713Y-45513D01*
X56930Y-45296D01*
X56930Y-45296D01*
X56930Y-45296D01*
X57709Y-44517D01*
X58055Y-44517D01*
X58057Y-44519D01*
X58217Y-44585D01*
X58238Y-44606D01*
X58238Y-44900D01*
X58070Y-45068D01*
X57685Y-45068D01*
X57653Y-45036D01*
X57541Y-44990D01*
X57419Y-44990D01*
X57307Y-45036D01*
X57221Y-45122D01*
X57175Y-45234D01*
X57175Y-45355D01*
X57221Y-45467D01*
X57307Y-45553D01*
X57419Y-45600D01*
X57540Y-45600D01*
X57652Y-45554D01*
X57685Y-45521D01*
X58543Y-45521D01*
X58543Y-45521D01*
X58629Y-45504D01*
X58703Y-45455D01*
X59175Y-44982D01*
X59175Y-44982D01*
X59224Y-44909D01*
X59242Y-44822D01*
X59242Y-44822D01*
X59242Y-44212D01*
X59242Y-43098D01*
X59274Y-43066D01*
X59320Y-42954D01*
X59320Y-42833D01*
X59274Y-42721D01*
X59188Y-42635D01*
X59153Y-42620D01*
X59351Y-42422D01*
X59351Y-42422D01*
X59394Y-42358D01*
X59409Y-42283D01*
X59409Y-42283D01*
X59409Y-41813D01*
X60418Y-40804D01*
X60449Y-40881D01*
X60482Y-40913D01*
X60482Y-42047D01*
X60499Y-42133D01*
X60548Y-42207D01*
X61584Y-43243D01*
X61584Y-45523D01*
X61552Y-45555D01*
X61505Y-45667D01*
X61505Y-45788D01*
X61552Y-45900D01*
X61637Y-45986D01*
X61750Y-46033D01*
X61871Y-46033D01*
X61983Y-45987D01*
X62069Y-45901D01*
X62116Y-45789D01*
X62116Y-45667D01*
X62069Y-45555D01*
X62037Y-45523D01*
X62037Y-43149D01*
X62037Y-43149D01*
X62020Y-43062D01*
X62020Y-43062D01*
X62003Y-43038D01*
X61971Y-42989D01*
X61971Y-42989D01*
X60935Y-41953D01*
X60935Y-40913D01*
X60967Y-40881D01*
X61013Y-40769D01*
X61013Y-40648D01*
X60967Y-40536D01*
X60881Y-40450D01*
X60804Y-40418D01*
X61782Y-39440D01*
X61783Y-39485D01*
X61859Y-39670D01*
X61893Y-39688D01*
X61919Y-39731D01*
X62001Y-39793D01*
X62022Y-39833D01*
X62222Y-39912D01*
X62326Y-39911D01*
X62514Y-39911D01*
X62518Y-39912D01*
X62621Y-39911D01*
X62726Y-39911D01*
X62726Y-39909D01*
X62733Y-39909D01*
X62759Y-39899D01*
X62785Y-39909D01*
X62785Y-39911D01*
X62790Y-39911D01*
X62793Y-39912D01*
X62897Y-39911D01*
X63085Y-39911D01*
X63089Y-39912D01*
X63192Y-39911D01*
X63218Y-39911D01*
X63220Y-39911D01*
X63304Y-39909D01*
X63489Y-39833D01*
X63510Y-39793D01*
X63592Y-39731D01*
X63618Y-39688D01*
X63652Y-39670D01*
X63699Y-39551D01*
X63700Y-39549D01*
X63701Y-39546D01*
X63731Y-39470D01*
X63730Y-39366D01*
X63730Y-39340D01*
X63729Y-39340D01*
X63728Y-39254D01*
X63652Y-39070D01*
X63618Y-39051D01*
X63608Y-39035D01*
X65331Y-39035D01*
X65521Y-39225D01*
X65521Y-39312D01*
X65567Y-39424D01*
X65653Y-39510D01*
X65765Y-39557D01*
X65887Y-39557D01*
X65955Y-39528D01*
X66101Y-39675D01*
X66141Y-39675D01*
X66141Y-40511D01*
X66141Y-40528D01*
X64597Y-42072D01*
X64597Y-41871D01*
X64596Y-41767D01*
X64596Y-41580D01*
X64597Y-41576D01*
X64596Y-41472D01*
X64596Y-41368D01*
X64594Y-41368D01*
X64594Y-41360D01*
X64584Y-41335D01*
X64594Y-41309D01*
X64596Y-41309D01*
X64596Y-41304D01*
X64597Y-41300D01*
X64596Y-41196D01*
X64596Y-41009D01*
X64597Y-41005D01*
X64596Y-40901D01*
X64596Y-40875D01*
X64596Y-40874D01*
X64594Y-40790D01*
X64518Y-40605D01*
X64478Y-40583D01*
X64417Y-40501D01*
X64373Y-40476D01*
X64355Y-40442D01*
X64237Y-40395D01*
X64234Y-40394D01*
X64231Y-40393D01*
X64155Y-40362D01*
X64051Y-40364D01*
X64025Y-40364D01*
X64025Y-40364D01*
X63939Y-40365D01*
X63755Y-40442D01*
X63736Y-40476D01*
X63693Y-40501D01*
X63631Y-40583D01*
X63591Y-40605D01*
X63512Y-40805D01*
X63513Y-40909D01*
X63513Y-41097D01*
X63512Y-41100D01*
X63513Y-41204D01*
X63513Y-41309D01*
X63515Y-41309D01*
X63515Y-41316D01*
X63526Y-41341D01*
X63515Y-41368D01*
X63513Y-41368D01*
X63513Y-41372D01*
X63512Y-41376D01*
X63513Y-41480D01*
X63513Y-41667D01*
X63512Y-41671D01*
X63513Y-41775D01*
X63513Y-41801D01*
X63514Y-41802D01*
X63515Y-41887D01*
X63591Y-42071D01*
X63631Y-42093D01*
X63693Y-42175D01*
X63736Y-42201D01*
X63755Y-42234D01*
X63873Y-42281D01*
X63875Y-42283D01*
X63878Y-42283D01*
X63955Y-42314D01*
X64058Y-42312D01*
X64084Y-42312D01*
X64084Y-42312D01*
X64170Y-42311D01*
X64355Y-42234D01*
X64373Y-42201D01*
X64417Y-42175D01*
X64478Y-42093D01*
X64518Y-42071D01*
X64597Y-41871D01*
X64597Y-42072D01*
X64396Y-42273D01*
X64309Y-42273D01*
X64197Y-42319D01*
X64111Y-42405D01*
X64065Y-42517D01*
X64064Y-42639D01*
X64111Y-42751D01*
X64197Y-42837D01*
X64309Y-42883D01*
X64430Y-42883D01*
X64542Y-42837D01*
X64628Y-42751D01*
X64675Y-42639D01*
X64675Y-42551D01*
X66477Y-40749D01*
X66477Y-40749D01*
X66520Y-40685D01*
X66535Y-40610D01*
X66535Y-40610D01*
X66535Y-50030D01*
X66356Y-50298D01*
X66356Y-49506D01*
X66356Y-43995D01*
X66280Y-43810D01*
X66139Y-43669D01*
X65954Y-43592D01*
X65754Y-43592D01*
X65570Y-43668D01*
X65429Y-43809D01*
X65352Y-43994D01*
X65352Y-44193D01*
X65428Y-44378D01*
X65569Y-44519D01*
X65754Y-44596D01*
X65953Y-44596D01*
X66138Y-44520D01*
X66279Y-44379D01*
X66356Y-44194D01*
X66356Y-43995D01*
X66356Y-49506D01*
X66280Y-49322D01*
X66139Y-49180D01*
X65954Y-49104D01*
X65754Y-49104D01*
X65679Y-49135D01*
X65679Y-48126D01*
X65450Y-47573D01*
X65027Y-47149D01*
X64474Y-46919D01*
X64356Y-46919D01*
X64356Y-43995D01*
X64280Y-43810D01*
X64139Y-43669D01*
X63954Y-43592D01*
X63754Y-43592D01*
X63570Y-43668D01*
X63429Y-43809D01*
X63352Y-43994D01*
X63352Y-44193D01*
X63428Y-44378D01*
X63569Y-44519D01*
X63754Y-44596D01*
X63953Y-44596D01*
X64138Y-44520D01*
X64279Y-44379D01*
X64356Y-44194D01*
X64356Y-43995D01*
X64356Y-46919D01*
X63874Y-46919D01*
X63321Y-47147D01*
X62897Y-47571D01*
X62667Y-48124D01*
X62667Y-48723D01*
X62895Y-49277D01*
X63319Y-49701D01*
X63872Y-49930D01*
X64471Y-49931D01*
X65025Y-49702D01*
X65449Y-49279D01*
X65678Y-48726D01*
X65679Y-48126D01*
X65679Y-49135D01*
X65570Y-49180D01*
X65429Y-49321D01*
X65352Y-49506D01*
X65352Y-49705D01*
X65428Y-49890D01*
X65569Y-50031D01*
X65754Y-50108D01*
X65953Y-50108D01*
X66138Y-50032D01*
X66279Y-49891D01*
X66356Y-49706D01*
X66356Y-49506D01*
X66356Y-50298D01*
X66232Y-50482D01*
X65647Y-50874D01*
X64944Y-51013D01*
X62116Y-51013D01*
X62116Y-41664D01*
X62116Y-41664D01*
X62116Y-41476D01*
X62116Y-41369D01*
X62116Y-41368D01*
X62116Y-41200D01*
X62116Y-41093D01*
X62116Y-41093D01*
X62116Y-40905D01*
X62116Y-40798D01*
X62082Y-40716D01*
X62074Y-40679D01*
X62054Y-40648D01*
X62033Y-40599D01*
X61996Y-40561D01*
X61957Y-40503D01*
X61900Y-40465D01*
X61881Y-40446D01*
X61857Y-40436D01*
X61781Y-40386D01*
X61693Y-40368D01*
X61682Y-40364D01*
X61671Y-40364D01*
X61574Y-40345D01*
X61479Y-40364D01*
X61467Y-40364D01*
X61456Y-40368D01*
X61367Y-40386D01*
X61292Y-40436D01*
X61268Y-40446D01*
X61249Y-40464D01*
X61192Y-40503D01*
X61153Y-40560D01*
X61116Y-40598D01*
X61095Y-40647D01*
X61074Y-40679D01*
X61067Y-40715D01*
X61033Y-40797D01*
X61033Y-40886D01*
X61033Y-40886D01*
X61033Y-40905D01*
X61033Y-41012D01*
X61033Y-41012D01*
X61033Y-41200D01*
X61033Y-41307D01*
X61033Y-41308D01*
X61033Y-41476D01*
X61033Y-41583D01*
X61033Y-41583D01*
X61033Y-41771D01*
X61033Y-41878D01*
X61067Y-41961D01*
X61074Y-41997D01*
X61095Y-42028D01*
X61115Y-42077D01*
X61153Y-42115D01*
X61192Y-42173D01*
X61249Y-42211D01*
X61267Y-42230D01*
X61292Y-42240D01*
X61367Y-42290D01*
X61455Y-42308D01*
X61466Y-42312D01*
X61478Y-42312D01*
X61574Y-42332D01*
X61670Y-42313D01*
X61682Y-42313D01*
X61692Y-42308D01*
X61781Y-42290D01*
X61856Y-42240D01*
X61881Y-42230D01*
X61899Y-42212D01*
X61957Y-42173D01*
X61995Y-42116D01*
X62033Y-42078D01*
X62053Y-42029D01*
X62074Y-41997D01*
X62082Y-41961D01*
X62116Y-41879D01*
X62116Y-41790D01*
X62116Y-41790D01*
X62116Y-41771D01*
X62116Y-41664D01*
X62116Y-51013D01*
X60844Y-51013D01*
X60844Y-49506D01*
X60844Y-43995D01*
X60768Y-43810D01*
X60627Y-43669D01*
X60442Y-43592D01*
X60243Y-43592D01*
X60058Y-43668D01*
X59917Y-43809D01*
X59840Y-43994D01*
X59840Y-44193D01*
X59916Y-44378D01*
X60057Y-44519D01*
X60242Y-44596D01*
X60441Y-44596D01*
X60626Y-44520D01*
X60767Y-44379D01*
X60844Y-44194D01*
X60844Y-43995D01*
X60844Y-49506D01*
X60768Y-49322D01*
X60627Y-49180D01*
X60442Y-49104D01*
X60305Y-49104D01*
X60305Y-45904D01*
X60258Y-45791D01*
X60173Y-45706D01*
X60060Y-45659D01*
X59939Y-45659D01*
X59827Y-45705D01*
X59765Y-45767D01*
X56671Y-45767D01*
X56610Y-45706D01*
X56497Y-45659D01*
X56376Y-45659D01*
X56264Y-45705D01*
X56178Y-45791D01*
X56131Y-45903D01*
X56131Y-46024D01*
X56178Y-46137D01*
X56263Y-46223D01*
X56376Y-46269D01*
X56497Y-46269D01*
X56609Y-46223D01*
X56671Y-46161D01*
X59765Y-46161D01*
X59826Y-46223D01*
X59939Y-46269D01*
X60060Y-46269D01*
X60172Y-46223D01*
X60258Y-46137D01*
X60305Y-46025D01*
X60305Y-45904D01*
X60305Y-49104D01*
X60243Y-49104D01*
X60058Y-49180D01*
X59917Y-49321D01*
X59840Y-49506D01*
X59840Y-49705D01*
X59916Y-49890D01*
X60057Y-50031D01*
X60242Y-50108D01*
X60441Y-50108D01*
X60626Y-50032D01*
X60767Y-49891D01*
X60844Y-49706D01*
X60844Y-49506D01*
X60844Y-51013D01*
X49232Y-51013D01*
X48522Y-50873D01*
X47942Y-50484D01*
X47550Y-49899D01*
X47411Y-49196D01*
X47411Y-33480D01*
X47550Y-32777D01*
X47942Y-32192D01*
X48522Y-31803D01*
X49232Y-31663D01*
X55692Y-31663D01*
X55793Y-31683D01*
X55866Y-31731D01*
X55914Y-31804D01*
X55935Y-31906D01*
X55935Y-33464D01*
X55938Y-33480D01*
X55938Y-33497D01*
X55968Y-33647D01*
X55992Y-33708D01*
X55993Y-33708D01*
X56078Y-33835D01*
X56124Y-33882D01*
X56125Y-33882D01*
X56252Y-33967D01*
X56252Y-33967D01*
X56312Y-33992D01*
X56463Y-34022D01*
X56479Y-34022D01*
X56496Y-34025D01*
X57677Y-34025D01*
X57693Y-34022D01*
X57709Y-34022D01*
X57860Y-33992D01*
X57920Y-33967D01*
X57921Y-33967D01*
X58048Y-33882D01*
X58094Y-33836D01*
X58094Y-33835D01*
X58179Y-33708D01*
X58180Y-33708D01*
X58205Y-33647D01*
X58234Y-33497D01*
X58234Y-33481D01*
X58238Y-33464D01*
X58238Y-31906D01*
X58258Y-31804D01*
X58306Y-31732D01*
X58379Y-31683D01*
X58481Y-31663D01*
X64944Y-31663D01*
X65647Y-31802D01*
X66232Y-32194D01*
X66621Y-32774D01*
X66761Y-33484D01*
X66761Y-49192D01*
M02*
