G04 (created by PCBNEW (2013-07-07 BZR 4022)-stable) date 5/17/2016 5:11:25 PM*
%MOIN*%
G04 Gerber Fmt 3.4, Leading zero omitted, Abs format*
%FSLAX34Y34*%
G01*
G70*
G90*
G04 APERTURE LIST*
%ADD10C,0.00393701*%
%ADD11C,0.00787402*%
%ADD12C,0.00590551*%
%ADD13C,0.00984252*%
%ADD14C,0.011811*%
%ADD15C,0.0246063*%
G04 APERTURE END LIST*
G54D10*
G54D11*
X65376Y-32484D02*
X65358Y-32502D01*
X65301Y-32521D01*
X65264Y-32521D01*
X65208Y-32502D01*
X65170Y-32465D01*
X65151Y-32427D01*
X65133Y-32352D01*
X65133Y-32296D01*
X65151Y-32221D01*
X65170Y-32184D01*
X65208Y-32146D01*
X65264Y-32127D01*
X65301Y-32127D01*
X65358Y-32146D01*
X65376Y-32165D01*
X65751Y-32521D02*
X65526Y-32521D01*
X65639Y-32521D02*
X65639Y-32127D01*
X65601Y-32184D01*
X65564Y-32221D01*
X65526Y-32240D01*
X66107Y-32127D02*
X65920Y-32127D01*
X65901Y-32315D01*
X65920Y-32296D01*
X65958Y-32277D01*
X66051Y-32277D01*
X66089Y-32296D01*
X66107Y-32315D01*
X66126Y-32352D01*
X66126Y-32446D01*
X66107Y-32484D01*
X66089Y-32502D01*
X66051Y-32521D01*
X65958Y-32521D01*
X65920Y-32502D01*
X65901Y-32484D01*
X60101Y-32484D02*
X60082Y-32502D01*
X60026Y-32521D01*
X59988Y-32521D01*
X59932Y-32502D01*
X59895Y-32465D01*
X59876Y-32427D01*
X59857Y-32352D01*
X59857Y-32296D01*
X59876Y-32221D01*
X59895Y-32184D01*
X59932Y-32146D01*
X59988Y-32127D01*
X60026Y-32127D01*
X60082Y-32146D01*
X60101Y-32165D01*
X60476Y-32521D02*
X60251Y-32521D01*
X60363Y-32521D02*
X60363Y-32127D01*
X60326Y-32184D01*
X60288Y-32221D01*
X60251Y-32240D01*
X60851Y-32521D02*
X60626Y-32521D01*
X60738Y-32521D02*
X60738Y-32127D01*
X60701Y-32184D01*
X60663Y-32221D01*
X60626Y-32240D01*
X60101Y-37995D02*
X60082Y-38014D01*
X60026Y-38033D01*
X59988Y-38033D01*
X59932Y-38014D01*
X59895Y-37977D01*
X59876Y-37939D01*
X59857Y-37864D01*
X59857Y-37808D01*
X59876Y-37733D01*
X59895Y-37695D01*
X59932Y-37658D01*
X59988Y-37639D01*
X60026Y-37639D01*
X60082Y-37658D01*
X60101Y-37677D01*
X60476Y-38033D02*
X60251Y-38033D01*
X60363Y-38033D02*
X60363Y-37639D01*
X60326Y-37695D01*
X60288Y-37733D01*
X60251Y-37752D01*
X60719Y-37639D02*
X60757Y-37639D01*
X60794Y-37658D01*
X60813Y-37677D01*
X60832Y-37714D01*
X60851Y-37789D01*
X60851Y-37883D01*
X60832Y-37958D01*
X60813Y-37995D01*
X60794Y-38014D01*
X60757Y-38033D01*
X60719Y-38033D01*
X60682Y-38014D01*
X60663Y-37995D01*
X60644Y-37958D01*
X60626Y-37883D01*
X60626Y-37789D01*
X60644Y-37714D01*
X60663Y-37677D01*
X60682Y-37658D01*
X60719Y-37639D01*
X54580Y-38704D02*
X54561Y-38723D01*
X54505Y-38742D01*
X54467Y-38742D01*
X54411Y-38723D01*
X54373Y-38685D01*
X54355Y-38648D01*
X54336Y-38573D01*
X54336Y-38517D01*
X54355Y-38442D01*
X54373Y-38404D01*
X54411Y-38367D01*
X54467Y-38348D01*
X54505Y-38348D01*
X54561Y-38367D01*
X54580Y-38385D01*
X54917Y-38348D02*
X54842Y-38348D01*
X54805Y-38367D01*
X54786Y-38385D01*
X54748Y-38442D01*
X54730Y-38517D01*
X54730Y-38667D01*
X54748Y-38704D01*
X54767Y-38723D01*
X54805Y-38742D01*
X54880Y-38742D01*
X54917Y-38723D01*
X54936Y-38704D01*
X54955Y-38667D01*
X54955Y-38573D01*
X54936Y-38535D01*
X54917Y-38517D01*
X54880Y-38498D01*
X54805Y-38498D01*
X54767Y-38517D01*
X54748Y-38535D01*
X54730Y-38573D01*
X64589Y-38704D02*
X64570Y-38723D01*
X64514Y-38742D01*
X64476Y-38742D01*
X64420Y-38723D01*
X64383Y-38685D01*
X64364Y-38648D01*
X64345Y-38573D01*
X64345Y-38517D01*
X64364Y-38442D01*
X64383Y-38404D01*
X64420Y-38367D01*
X64476Y-38348D01*
X64514Y-38348D01*
X64570Y-38367D01*
X64589Y-38385D01*
X64964Y-38742D02*
X64739Y-38742D01*
X64851Y-38742D02*
X64851Y-38348D01*
X64814Y-38404D01*
X64776Y-38442D01*
X64739Y-38460D01*
X65301Y-38479D02*
X65301Y-38742D01*
X65208Y-38329D02*
X65114Y-38610D01*
X65358Y-38610D01*
X65613Y-49019D02*
X65594Y-49038D01*
X65538Y-49056D01*
X65500Y-49056D01*
X65444Y-49038D01*
X65406Y-49000D01*
X65388Y-48963D01*
X65369Y-48888D01*
X65369Y-48832D01*
X65388Y-48757D01*
X65406Y-48719D01*
X65444Y-48682D01*
X65500Y-48663D01*
X65538Y-48663D01*
X65594Y-48682D01*
X65613Y-48700D01*
X65988Y-49056D02*
X65763Y-49056D01*
X65875Y-49056D02*
X65875Y-48663D01*
X65838Y-48719D01*
X65800Y-48757D01*
X65763Y-48775D01*
X66137Y-48700D02*
X66156Y-48682D01*
X66194Y-48663D01*
X66287Y-48663D01*
X66325Y-48682D01*
X66344Y-48700D01*
X66362Y-48738D01*
X66362Y-48775D01*
X66344Y-48832D01*
X66119Y-49056D01*
X66362Y-49056D01*
X60288Y-49019D02*
X60269Y-49038D01*
X60213Y-49056D01*
X60176Y-49056D01*
X60119Y-49038D01*
X60082Y-49000D01*
X60063Y-48963D01*
X60044Y-48888D01*
X60044Y-48832D01*
X60063Y-48757D01*
X60082Y-48719D01*
X60119Y-48682D01*
X60176Y-48663D01*
X60213Y-48663D01*
X60269Y-48682D01*
X60288Y-48700D01*
X60513Y-48832D02*
X60476Y-48813D01*
X60457Y-48794D01*
X60438Y-48757D01*
X60438Y-48738D01*
X60457Y-48700D01*
X60476Y-48682D01*
X60513Y-48663D01*
X60588Y-48663D01*
X60626Y-48682D01*
X60644Y-48700D01*
X60663Y-48738D01*
X60663Y-48757D01*
X60644Y-48794D01*
X60626Y-48813D01*
X60588Y-48832D01*
X60513Y-48832D01*
X60476Y-48850D01*
X60457Y-48869D01*
X60438Y-48907D01*
X60438Y-48982D01*
X60457Y-49019D01*
X60476Y-49038D01*
X60513Y-49056D01*
X60588Y-49056D01*
X60626Y-49038D01*
X60644Y-49019D01*
X60663Y-48982D01*
X60663Y-48907D01*
X60644Y-48869D01*
X60626Y-48850D01*
X60588Y-48832D01*
X58280Y-43545D02*
X58093Y-43545D01*
X58093Y-43151D01*
X58393Y-43188D02*
X58412Y-43170D01*
X58449Y-43151D01*
X58543Y-43151D01*
X58580Y-43170D01*
X58599Y-43188D01*
X58618Y-43226D01*
X58618Y-43263D01*
X58599Y-43320D01*
X58374Y-43545D01*
X58618Y-43545D01*
X60288Y-43507D02*
X60269Y-43526D01*
X60213Y-43545D01*
X60176Y-43545D01*
X60119Y-43526D01*
X60082Y-43488D01*
X60063Y-43451D01*
X60044Y-43376D01*
X60044Y-43320D01*
X60063Y-43245D01*
X60082Y-43207D01*
X60119Y-43170D01*
X60176Y-43151D01*
X60213Y-43151D01*
X60269Y-43170D01*
X60288Y-43188D01*
X60476Y-43545D02*
X60551Y-43545D01*
X60588Y-43526D01*
X60607Y-43507D01*
X60644Y-43451D01*
X60663Y-43376D01*
X60663Y-43226D01*
X60644Y-43188D01*
X60626Y-43170D01*
X60588Y-43151D01*
X60513Y-43151D01*
X60476Y-43170D01*
X60457Y-43188D01*
X60438Y-43226D01*
X60438Y-43320D01*
X60457Y-43357D01*
X60476Y-43376D01*
X60513Y-43395D01*
X60588Y-43395D01*
X60626Y-43376D01*
X60644Y-43357D01*
X60663Y-43320D01*
X63792Y-43545D02*
X63605Y-43545D01*
X63605Y-43151D01*
X63886Y-43151D02*
X64130Y-43151D01*
X63998Y-43301D01*
X64055Y-43301D01*
X64092Y-43320D01*
X64111Y-43338D01*
X64130Y-43376D01*
X64130Y-43470D01*
X64111Y-43507D01*
X64092Y-43526D01*
X64055Y-43545D01*
X63942Y-43545D01*
X63905Y-43526D01*
X63886Y-43507D01*
X65573Y-43507D02*
X65554Y-43526D01*
X65498Y-43545D01*
X65461Y-43545D01*
X65404Y-43526D01*
X65367Y-43488D01*
X65348Y-43451D01*
X65329Y-43376D01*
X65329Y-43320D01*
X65348Y-43245D01*
X65367Y-43207D01*
X65404Y-43170D01*
X65461Y-43151D01*
X65498Y-43151D01*
X65554Y-43170D01*
X65573Y-43188D01*
X65948Y-43545D02*
X65723Y-43545D01*
X65836Y-43545D02*
X65836Y-43151D01*
X65798Y-43207D01*
X65761Y-43245D01*
X65723Y-43263D01*
X66079Y-43151D02*
X66323Y-43151D01*
X66192Y-43301D01*
X66248Y-43301D01*
X66286Y-43320D01*
X66304Y-43338D01*
X66323Y-43376D01*
X66323Y-43470D01*
X66304Y-43507D01*
X66286Y-43526D01*
X66248Y-43545D01*
X66136Y-43545D01*
X66098Y-43526D01*
X66079Y-43507D01*
X53753Y-49019D02*
X53734Y-49038D01*
X53678Y-49056D01*
X53640Y-49056D01*
X53584Y-49038D01*
X53547Y-49000D01*
X53528Y-48963D01*
X53509Y-48888D01*
X53509Y-48832D01*
X53528Y-48757D01*
X53547Y-48719D01*
X53584Y-48682D01*
X53640Y-48663D01*
X53678Y-48663D01*
X53734Y-48682D01*
X53753Y-48700D01*
X54090Y-48794D02*
X54090Y-49056D01*
X53997Y-48644D02*
X53903Y-48925D01*
X54146Y-48925D01*
X55761Y-43545D02*
X55573Y-43545D01*
X55573Y-43151D01*
X56098Y-43545D02*
X55873Y-43545D01*
X55986Y-43545D02*
X55986Y-43151D01*
X55948Y-43207D01*
X55911Y-43245D01*
X55873Y-43263D01*
X53753Y-43507D02*
X53734Y-43526D01*
X53678Y-43545D01*
X53640Y-43545D01*
X53584Y-43526D01*
X53547Y-43488D01*
X53528Y-43451D01*
X53509Y-43376D01*
X53509Y-43320D01*
X53528Y-43245D01*
X53547Y-43207D01*
X53584Y-43170D01*
X53640Y-43151D01*
X53678Y-43151D01*
X53734Y-43170D01*
X53753Y-43188D01*
X54109Y-43151D02*
X53922Y-43151D01*
X53903Y-43338D01*
X53922Y-43320D01*
X53959Y-43301D01*
X54053Y-43301D01*
X54090Y-43320D01*
X54109Y-43338D01*
X54128Y-43376D01*
X54128Y-43470D01*
X54109Y-43507D01*
X54090Y-43526D01*
X54053Y-43545D01*
X53959Y-43545D01*
X53922Y-43526D01*
X53903Y-43507D01*
X53753Y-32484D02*
X53734Y-32502D01*
X53678Y-32521D01*
X53640Y-32521D01*
X53584Y-32502D01*
X53547Y-32465D01*
X53528Y-32427D01*
X53509Y-32352D01*
X53509Y-32296D01*
X53528Y-32221D01*
X53547Y-32184D01*
X53584Y-32146D01*
X53640Y-32127D01*
X53678Y-32127D01*
X53734Y-32146D01*
X53753Y-32165D01*
X53884Y-32127D02*
X54146Y-32127D01*
X53978Y-32521D01*
X48280Y-49019D02*
X48262Y-49038D01*
X48205Y-49056D01*
X48168Y-49056D01*
X48112Y-49038D01*
X48074Y-49000D01*
X48055Y-48963D01*
X48037Y-48888D01*
X48037Y-48832D01*
X48055Y-48757D01*
X48074Y-48719D01*
X48112Y-48682D01*
X48168Y-48663D01*
X48205Y-48663D01*
X48262Y-48682D01*
X48280Y-48700D01*
X48524Y-48663D02*
X48562Y-48663D01*
X48599Y-48682D01*
X48618Y-48700D01*
X48637Y-48738D01*
X48655Y-48813D01*
X48655Y-48907D01*
X48637Y-48982D01*
X48618Y-49019D01*
X48599Y-49038D01*
X48562Y-49056D01*
X48524Y-49056D01*
X48487Y-49038D01*
X48468Y-49019D01*
X48449Y-48982D01*
X48430Y-48907D01*
X48430Y-48813D01*
X48449Y-48738D01*
X48468Y-48700D01*
X48487Y-48682D01*
X48524Y-48663D01*
X50249Y-43545D02*
X50061Y-43545D01*
X50061Y-43151D01*
X50455Y-43151D02*
X50493Y-43151D01*
X50530Y-43170D01*
X50549Y-43188D01*
X50568Y-43226D01*
X50586Y-43301D01*
X50586Y-43395D01*
X50568Y-43470D01*
X50549Y-43507D01*
X50530Y-43526D01*
X50493Y-43545D01*
X50455Y-43545D01*
X50418Y-43526D01*
X50399Y-43507D01*
X50380Y-43470D01*
X50361Y-43395D01*
X50361Y-43301D01*
X50380Y-43226D01*
X50399Y-43188D01*
X50418Y-43170D01*
X50455Y-43151D01*
X48241Y-43507D02*
X48222Y-43526D01*
X48166Y-43545D01*
X48128Y-43545D01*
X48072Y-43526D01*
X48035Y-43488D01*
X48016Y-43451D01*
X47997Y-43376D01*
X47997Y-43320D01*
X48016Y-43245D01*
X48035Y-43207D01*
X48072Y-43170D01*
X48128Y-43151D01*
X48166Y-43151D01*
X48222Y-43170D01*
X48241Y-43188D01*
X48616Y-43545D02*
X48391Y-43545D01*
X48503Y-43545D02*
X48503Y-43151D01*
X48466Y-43207D01*
X48428Y-43245D01*
X48391Y-43263D01*
X48241Y-37995D02*
X48222Y-38014D01*
X48166Y-38033D01*
X48128Y-38033D01*
X48072Y-38014D01*
X48035Y-37977D01*
X48016Y-37939D01*
X47997Y-37864D01*
X47997Y-37808D01*
X48016Y-37733D01*
X48035Y-37695D01*
X48072Y-37658D01*
X48128Y-37639D01*
X48166Y-37639D01*
X48222Y-37658D01*
X48241Y-37677D01*
X48391Y-37677D02*
X48410Y-37658D01*
X48447Y-37639D01*
X48541Y-37639D01*
X48578Y-37658D01*
X48597Y-37677D01*
X48616Y-37714D01*
X48616Y-37752D01*
X48597Y-37808D01*
X48372Y-38033D01*
X48616Y-38033D01*
X48241Y-32484D02*
X48222Y-32502D01*
X48166Y-32521D01*
X48128Y-32521D01*
X48072Y-32502D01*
X48035Y-32465D01*
X48016Y-32427D01*
X47997Y-32352D01*
X47997Y-32296D01*
X48016Y-32221D01*
X48035Y-32184D01*
X48072Y-32146D01*
X48128Y-32127D01*
X48166Y-32127D01*
X48222Y-32146D01*
X48241Y-32165D01*
X48372Y-32127D02*
X48616Y-32127D01*
X48485Y-32277D01*
X48541Y-32277D01*
X48578Y-32296D01*
X48597Y-32315D01*
X48616Y-32352D01*
X48616Y-32446D01*
X48597Y-32484D01*
X48578Y-32502D01*
X48541Y-32521D01*
X48428Y-32521D01*
X48391Y-32502D01*
X48372Y-32484D01*
G54D12*
X52315Y-50745D02*
X52540Y-50745D01*
X52427Y-50981D02*
X52427Y-50745D01*
X52634Y-50745D02*
X52896Y-50981D01*
X52896Y-50745D02*
X52634Y-50981D01*
X52502Y-50587D02*
X52371Y-50475D01*
X52277Y-50587D02*
X52277Y-50351D01*
X52427Y-50351D01*
X52465Y-50362D01*
X52484Y-50374D01*
X52502Y-50396D01*
X52502Y-50430D01*
X52484Y-50452D01*
X52465Y-50464D01*
X52427Y-50475D01*
X52277Y-50475D01*
X52634Y-50351D02*
X52896Y-50587D01*
X52896Y-50351D02*
X52634Y-50587D01*
G54D13*
X49254Y-45475D02*
X49254Y-44884D01*
X49507Y-45475D02*
X49507Y-45165D01*
X49479Y-45109D01*
X49423Y-45081D01*
X49339Y-45081D01*
X49282Y-45109D01*
X49254Y-45137D01*
X49704Y-45081D02*
X49929Y-45081D01*
X49789Y-44884D02*
X49789Y-45390D01*
X49817Y-45447D01*
X49873Y-45475D01*
X49929Y-45475D01*
X50042Y-45081D02*
X50267Y-45081D01*
X50126Y-44884D02*
X50126Y-45390D01*
X50154Y-45447D01*
X50210Y-45475D01*
X50267Y-45475D01*
X50464Y-45081D02*
X50464Y-45672D01*
X50464Y-45109D02*
X50520Y-45081D01*
X50632Y-45081D01*
X50688Y-45109D01*
X50717Y-45137D01*
X50745Y-45194D01*
X50745Y-45362D01*
X50717Y-45419D01*
X50688Y-45447D01*
X50632Y-45475D01*
X50520Y-45475D01*
X50464Y-45447D01*
X50998Y-45419D02*
X51026Y-45447D01*
X50998Y-45475D01*
X50970Y-45447D01*
X50998Y-45419D01*
X50998Y-45475D01*
X50998Y-45109D02*
X51026Y-45137D01*
X50998Y-45165D01*
X50970Y-45137D01*
X50998Y-45109D01*
X50998Y-45165D01*
X51701Y-44856D02*
X51195Y-45615D01*
X52320Y-44856D02*
X51813Y-45615D01*
X52516Y-45475D02*
X52516Y-44884D01*
X52769Y-45475D02*
X52769Y-45165D01*
X52741Y-45109D01*
X52685Y-45081D01*
X52601Y-45081D01*
X52544Y-45109D01*
X52516Y-45137D01*
X53135Y-45475D02*
X53079Y-45447D01*
X53051Y-45419D01*
X53023Y-45362D01*
X53023Y-45194D01*
X53051Y-45137D01*
X53079Y-45109D01*
X53135Y-45081D01*
X53219Y-45081D01*
X53276Y-45109D01*
X53304Y-45137D01*
X53332Y-45194D01*
X53332Y-45362D01*
X53304Y-45419D01*
X53276Y-45447D01*
X53219Y-45475D01*
X53135Y-45475D01*
X53501Y-45081D02*
X53726Y-45081D01*
X53585Y-44884D02*
X53585Y-45390D01*
X53613Y-45447D01*
X53669Y-45475D01*
X53726Y-45475D01*
X53866Y-45081D02*
X53979Y-45475D01*
X54091Y-45194D01*
X54204Y-45475D01*
X54316Y-45081D01*
X54625Y-45475D02*
X54569Y-45447D01*
X54541Y-45419D01*
X54513Y-45362D01*
X54513Y-45194D01*
X54541Y-45137D01*
X54569Y-45109D01*
X54625Y-45081D01*
X54710Y-45081D01*
X54766Y-45109D01*
X54794Y-45137D01*
X54822Y-45194D01*
X54822Y-45362D01*
X54794Y-45419D01*
X54766Y-45447D01*
X54710Y-45475D01*
X54625Y-45475D01*
X55160Y-45475D02*
X55104Y-45447D01*
X55075Y-45390D01*
X55075Y-44884D01*
X55300Y-45081D02*
X55525Y-45081D01*
X55385Y-45475D02*
X55385Y-44969D01*
X55413Y-44912D01*
X55469Y-44884D01*
X55525Y-44884D01*
X55722Y-45419D02*
X55750Y-45447D01*
X55722Y-45475D01*
X55694Y-45447D01*
X55722Y-45419D01*
X55722Y-45475D01*
X56257Y-45081D02*
X56257Y-45559D01*
X56228Y-45615D01*
X56200Y-45643D01*
X56144Y-45672D01*
X56060Y-45672D01*
X56003Y-45643D01*
X56257Y-45447D02*
X56200Y-45475D01*
X56088Y-45475D01*
X56032Y-45447D01*
X56003Y-45419D01*
X55975Y-45362D01*
X55975Y-45194D01*
X56003Y-45137D01*
X56032Y-45109D01*
X56088Y-45081D01*
X56200Y-45081D01*
X56257Y-45109D01*
X56538Y-45475D02*
X56538Y-45081D01*
X56538Y-44884D02*
X56510Y-44912D01*
X56538Y-44940D01*
X56566Y-44912D01*
X56538Y-44884D01*
X56538Y-44940D01*
X56735Y-45081D02*
X56960Y-45081D01*
X56819Y-44884D02*
X56819Y-45390D01*
X56847Y-45447D01*
X56903Y-45475D01*
X56960Y-45475D01*
X57156Y-45475D02*
X57156Y-44884D01*
X57410Y-45475D02*
X57410Y-45165D01*
X57381Y-45109D01*
X57325Y-45081D01*
X57241Y-45081D01*
X57185Y-45109D01*
X57156Y-45137D01*
X57944Y-45081D02*
X57944Y-45475D01*
X57691Y-45081D02*
X57691Y-45390D01*
X57719Y-45447D01*
X57775Y-45475D01*
X57859Y-45475D01*
X57916Y-45447D01*
X57944Y-45419D01*
X58225Y-45475D02*
X58225Y-44884D01*
X58225Y-45109D02*
X58281Y-45081D01*
X58394Y-45081D01*
X58450Y-45109D01*
X58478Y-45137D01*
X58506Y-45194D01*
X58506Y-45362D01*
X58478Y-45419D01*
X58450Y-45447D01*
X58394Y-45475D01*
X58281Y-45475D01*
X58225Y-45447D01*
X58759Y-45419D02*
X58787Y-45447D01*
X58759Y-45475D01*
X58731Y-45447D01*
X58759Y-45419D01*
X58759Y-45475D01*
X59041Y-45475D02*
X59041Y-45081D01*
X59041Y-44884D02*
X59012Y-44912D01*
X59041Y-44940D01*
X59069Y-44912D01*
X59041Y-44884D01*
X59041Y-44940D01*
X59406Y-45475D02*
X59350Y-45447D01*
X59322Y-45419D01*
X59294Y-45362D01*
X59294Y-45194D01*
X59322Y-45137D01*
X59350Y-45109D01*
X59406Y-45081D01*
X59491Y-45081D01*
X59547Y-45109D01*
X59575Y-45137D01*
X59603Y-45194D01*
X59603Y-45362D01*
X59575Y-45419D01*
X59547Y-45447D01*
X59491Y-45475D01*
X59406Y-45475D01*
X60278Y-44856D02*
X59772Y-45615D01*
X60475Y-45475D02*
X60475Y-44884D01*
X60672Y-45306D01*
X60868Y-44884D01*
X60868Y-45475D01*
X61403Y-45475D02*
X61403Y-45165D01*
X61375Y-45109D01*
X61318Y-45081D01*
X61206Y-45081D01*
X61150Y-45109D01*
X61403Y-45447D02*
X61347Y-45475D01*
X61206Y-45475D01*
X61150Y-45447D01*
X61122Y-45390D01*
X61122Y-45334D01*
X61150Y-45278D01*
X61206Y-45250D01*
X61347Y-45250D01*
X61403Y-45222D01*
X61937Y-45081D02*
X61937Y-45559D01*
X61909Y-45615D01*
X61881Y-45643D01*
X61825Y-45672D01*
X61740Y-45672D01*
X61684Y-45643D01*
X61937Y-45447D02*
X61881Y-45475D01*
X61768Y-45475D01*
X61712Y-45447D01*
X61684Y-45419D01*
X61656Y-45362D01*
X61656Y-45194D01*
X61684Y-45137D01*
X61712Y-45109D01*
X61768Y-45081D01*
X61881Y-45081D01*
X61937Y-45109D01*
X62218Y-45081D02*
X62218Y-45475D01*
X62218Y-45137D02*
X62246Y-45109D01*
X62303Y-45081D01*
X62387Y-45081D01*
X62443Y-45109D01*
X62471Y-45165D01*
X62471Y-45475D01*
X62753Y-45475D02*
X62753Y-45081D01*
X62753Y-44884D02*
X62724Y-44912D01*
X62753Y-44940D01*
X62781Y-44912D01*
X62753Y-44884D01*
X62753Y-44940D01*
X63371Y-45419D02*
X63343Y-45447D01*
X63259Y-45475D01*
X63203Y-45475D01*
X63118Y-45447D01*
X63062Y-45390D01*
X63034Y-45334D01*
X63006Y-45222D01*
X63006Y-45137D01*
X63034Y-45025D01*
X63062Y-44969D01*
X63118Y-44912D01*
X63203Y-44884D01*
X63259Y-44884D01*
X63343Y-44912D01*
X63371Y-44940D01*
X63877Y-45081D02*
X63877Y-45475D01*
X63624Y-45081D02*
X63624Y-45390D01*
X63652Y-45447D01*
X63709Y-45475D01*
X63793Y-45475D01*
X63849Y-45447D01*
X63877Y-45419D01*
X64159Y-45475D02*
X64159Y-44884D01*
X64159Y-45109D02*
X64215Y-45081D01*
X64327Y-45081D01*
X64384Y-45109D01*
X64412Y-45137D01*
X64440Y-45194D01*
X64440Y-45362D01*
X64412Y-45419D01*
X64384Y-45447D01*
X64327Y-45475D01*
X64215Y-45475D01*
X64159Y-45447D01*
X64918Y-45447D02*
X64862Y-45475D01*
X64749Y-45475D01*
X64693Y-45447D01*
X64665Y-45390D01*
X64665Y-45165D01*
X64693Y-45109D01*
X64749Y-45081D01*
X64862Y-45081D01*
X64918Y-45109D01*
X64946Y-45165D01*
X64946Y-45222D01*
X64665Y-45278D01*
G54D14*
X49687Y-39097D02*
X49491Y-38816D01*
X49350Y-39097D02*
X49350Y-38506D01*
X49575Y-38506D01*
X49631Y-38534D01*
X49659Y-38562D01*
X49687Y-38619D01*
X49687Y-38703D01*
X49659Y-38759D01*
X49631Y-38787D01*
X49575Y-38816D01*
X49350Y-38816D01*
X50165Y-39069D02*
X50109Y-39097D01*
X49997Y-39097D01*
X49940Y-39069D01*
X49912Y-39012D01*
X49912Y-38787D01*
X49940Y-38731D01*
X49997Y-38703D01*
X50109Y-38703D01*
X50165Y-38731D01*
X50194Y-38787D01*
X50194Y-38844D01*
X49912Y-38900D01*
X50390Y-38703D02*
X50531Y-39097D01*
X50672Y-38703D01*
X50868Y-38928D02*
X51150Y-38928D01*
X50812Y-39097D02*
X51009Y-38506D01*
X51206Y-39097D01*
G54D12*
X65592Y-37032D02*
X65592Y-37219D01*
X65779Y-37238D01*
X65761Y-37219D01*
X65742Y-37182D01*
X65742Y-37088D01*
X65761Y-37050D01*
X65779Y-37032D01*
X65817Y-37013D01*
X65911Y-37013D01*
X65948Y-37032D01*
X65967Y-37050D01*
X65986Y-37088D01*
X65986Y-37182D01*
X65967Y-37219D01*
X65948Y-37238D01*
X65836Y-36844D02*
X65836Y-36544D01*
X65986Y-36151D02*
X65986Y-36376D01*
X65986Y-36263D02*
X65592Y-36263D01*
X65648Y-36301D01*
X65686Y-36338D01*
X65704Y-36376D01*
X65629Y-36001D02*
X65611Y-35982D01*
X65592Y-35944D01*
X65592Y-35851D01*
X65611Y-35813D01*
X65629Y-35794D01*
X65667Y-35776D01*
X65704Y-35776D01*
X65761Y-35794D01*
X65986Y-36019D01*
X65986Y-35776D01*
X65592Y-35663D02*
X65986Y-35532D01*
X65592Y-35401D01*
G54D15*
X55380Y-36765D02*
X55380Y-37683D01*
X54958Y-36765D02*
X54958Y-37486D01*
X55005Y-37618D01*
X55099Y-37683D01*
X55239Y-37683D01*
X55333Y-37618D01*
X55380Y-37552D01*
X55849Y-37683D02*
X55849Y-36305D01*
X55849Y-36830D02*
X55943Y-36765D01*
X56130Y-36765D01*
X56224Y-36830D01*
X56271Y-36896D01*
X56317Y-37027D01*
X56317Y-37421D01*
X56271Y-37552D01*
X56224Y-37618D01*
X56130Y-37683D01*
X55943Y-37683D01*
X55849Y-37618D01*
X57114Y-37618D02*
X57020Y-37683D01*
X56833Y-37683D01*
X56739Y-37618D01*
X56692Y-37486D01*
X56692Y-36961D01*
X56739Y-36830D01*
X56833Y-36765D01*
X57020Y-36765D01*
X57114Y-36830D01*
X57161Y-36961D01*
X57161Y-37093D01*
X56692Y-37224D01*
X50853Y-37683D02*
X50853Y-36961D01*
X50806Y-36830D01*
X50712Y-36765D01*
X50524Y-36765D01*
X50431Y-36830D01*
X50853Y-37618D02*
X50759Y-37683D01*
X50524Y-37683D01*
X50431Y-37618D01*
X50384Y-37486D01*
X50384Y-37355D01*
X50431Y-37224D01*
X50524Y-37158D01*
X50759Y-37158D01*
X50853Y-37093D01*
X51743Y-36765D02*
X51743Y-37880D01*
X51696Y-38011D01*
X51649Y-38077D01*
X51556Y-38143D01*
X51415Y-38143D01*
X51321Y-38077D01*
X51743Y-37618D02*
X51649Y-37683D01*
X51462Y-37683D01*
X51368Y-37618D01*
X51321Y-37552D01*
X51274Y-37421D01*
X51274Y-37027D01*
X51321Y-36896D01*
X51368Y-36830D01*
X51462Y-36765D01*
X51649Y-36765D01*
X51743Y-36830D01*
X52212Y-36765D02*
X52212Y-37683D01*
X52212Y-36896D02*
X52259Y-36830D01*
X52352Y-36765D01*
X52493Y-36765D01*
X52587Y-36830D01*
X52634Y-36961D01*
X52634Y-37683D01*
X53102Y-37683D02*
X53102Y-36765D01*
X53102Y-36305D02*
X53055Y-36371D01*
X53102Y-36437D01*
X53149Y-36371D01*
X53102Y-36305D01*
X53102Y-36437D01*
G54D10*
X49212Y-31496D02*
G75*
G03X47244Y-33464I0J-1968D01*
G74*
G01*
X56102Y-31889D02*
G75*
G03X55708Y-31496I-393J0D01*
G74*
G01*
X56102Y-33464D02*
G75*
G03X56496Y-33858I393J0D01*
G74*
G01*
X57677Y-33858D02*
G75*
G03X58070Y-33464I0J393D01*
G74*
G01*
X58464Y-31496D02*
G75*
G03X58070Y-31889I0J-393D01*
G74*
G01*
X66929Y-33464D02*
G75*
G03X64960Y-31496I-1968J0D01*
G74*
G01*
X64960Y-51181D02*
G75*
G03X66929Y-49212I0J1968D01*
G74*
G01*
X47244Y-49212D02*
G75*
G03X49212Y-51181I1968J0D01*
G74*
G01*
X49212Y-31496D02*
X55708Y-31496D01*
X56102Y-31889D02*
X56102Y-33464D01*
X56496Y-33858D02*
X57677Y-33858D01*
X58070Y-33464D02*
X58070Y-31889D01*
X58464Y-31496D02*
X64960Y-31496D01*
X66929Y-33464D02*
X66929Y-49212D01*
X64960Y-51181D02*
X49212Y-51181D01*
X47244Y-49212D02*
X47244Y-33464D01*
G54D11*
X57204Y-42258D02*
G75*
G03X57204Y-42258I-118J0D01*
G74*
G01*
X57125Y-42258D02*
G75*
G03X57125Y-42258I-39J0D01*
G74*
G01*
X57165Y-42258D02*
G75*
G03X57165Y-42258I-78J0D01*
G74*
G01*
X53070Y-50885D02*
X53070Y-50216D01*
G54D12*
X66515Y-37066D02*
X66240Y-37066D01*
X66377Y-35748D02*
X66377Y-35472D01*
X66377Y-37204D02*
X66377Y-36929D01*
X66515Y-36555D02*
G75*
G03X66594Y-36200I-137J216D01*
G74*
G01*
X66161Y-36200D02*
G75*
G03X66240Y-36555I216J-137D01*
G74*
G01*
G54D14*
X66456Y-36338D02*
G75*
G03X66456Y-36338I-78J0D01*
G74*
G01*
X66417Y-36338D02*
G75*
G03X66417Y-36338I-39J0D01*
G74*
G01*
G54D12*
X66377Y-35866D02*
X66377Y-36220D01*
X66633Y-35610D02*
G75*
G03X66633Y-35610I-255J0D01*
G74*
G01*
X66633Y-37066D02*
G75*
G03X66633Y-37066I-255J0D01*
G74*
G01*
X66377Y-36594D02*
X66377Y-36811D01*
X66377Y-36594D02*
G75*
G03X66633Y-36338I0J255D01*
G74*
G01*
X66122Y-36338D02*
G75*
G03X66377Y-36594I255J0D01*
G74*
G01*
M02*
