M48
;DRILL file {Pcbnew (2013-07-07 BZR 4022)-stable} date 5/17/2016 5:11:35 PM
;FORMAT={-:-/ absolute / metric / decimal}
FMAT,2
METRIC,TZ
T1C0.300
T2C1.000
%
G90
G05
M71
T1
X121.8Y-99.3
X121.8Y-110.7
X122.Y-118.4
X122.05Y-91.55
X122.05Y-113.4
X122.05Y-123.55
X122.2Y-82.2
X122.2Y-127.8
X122.25Y-96.55
X122.8Y-85.7
X122.8Y-99.7
X122.8Y-110.3
X122.8Y-124.3
X122.9Y-100.85
X123.1Y-105.3
X123.5Y-89.3
X123.6Y-114.
X123.6Y-120.6
X124.1Y-109.4
X124.25Y-83.95
X124.25Y-126.05
X124.3Y-96.4
X124.8Y-107.05
X124.85Y-112.5
X124.9Y-111.45
X125.1Y-114.2
X125.25Y-102.95
X127.2Y-109.45
X127.35Y-116.5
X127.6Y-104.45
X127.8Y-114.7
X128.Y-102.75
X128.15Y-92.55
X128.899Y-105.449
X129.95Y-111.8
X129.967Y-101.1
X130.Y-102.95
X130.7Y-105.4
X130.95Y-91.95
X131.05Y-114.95
X131.05Y-116.55
X131.05Y-127.05
X131.65Y-112.5
X132.25Y-88.65
X132.35Y-85.35
X132.8Y-90.1
X132.85Y-103.95
X133.2Y-113.75
X133.9Y-120.7
X133.95Y-113.
X134.Y-98.
X134.6Y-104.3
X134.7Y-126.
X134.7Y-127.
X135.075Y-115.475
X135.1Y-116.55
X135.1Y-118.25
X135.45Y-100.7
X135.45Y-121.55
X135.547Y-123.4
X135.8Y-85.25
X136.6Y-104.35
X136.6Y-106.
X136.8Y-85.7
X137.2Y-106.95
X137.3Y-88.55
X137.75Y-85.2
X138.Y-103.547
X138.Y-105.453
X138.1Y-107.45
X138.45Y-97.5
X138.65Y-117.6
X138.82Y-127.36
X138.85Y-90.1
X138.85Y-122.05
X139.Y-107.95
X139.09Y-129.26
X139.19Y-125.28
X139.25Y-101.9
X139.4Y-92.
X139.5Y-88.55
X139.7Y-111.747
X139.9Y-108.45
X139.9Y-118.7
X139.9Y-119.7
X139.9Y-121.7
X140.4Y-91.9
X140.5Y-100.7
X140.8Y-108.9
X141.Y-88.55
X141.Y-90.08
X141.5Y-81.
X141.7Y-109.4
X141.75Y-103.1
X141.95Y-104.75
X142.15Y-99.
X142.3Y-86.2
X142.6Y-109.9
X143.1Y-104.8
X143.35Y-116.75
X143.5Y-110.4
X143.5Y-111.45
X144.05Y-97.9
X144.25Y-109.4
X144.5Y-100.8
X144.9Y-99.8
X145.1Y-97.95
X145.65Y-105.2
X145.9Y-102.953
X145.941Y-101.091
X146.Y-115.05
X146.075Y-124.15
X146.75Y-97.95
X147.25Y-97.05
X147.35Y-116.
X147.4Y-113.35
X147.65Y-105.
X147.7Y-86.2
X147.7Y-121.95
X148.3Y-96.
X148.5Y-81.
X148.95Y-103.74
X149.075Y-87.6
X149.2Y-95.5
X149.3Y-124.15
X149.55Y-89.65
X149.55Y-91.95
X149.6Y-88.5
X149.65Y-129.25
X149.9Y-108.95
X150.Y-122.1
X150.1Y-95.
X150.35Y-123.95
X150.875Y-88.825
X150.875Y-90.975
X150.95Y-108.85
X151.Y-94.45
X151.Y-116.
X151.Y-117.5
X151.Y-123.1
X151.15Y-106.35
X151.2Y-127.
X151.2Y-128.5
X151.65Y-122.25
X151.7Y-110.91
X151.9Y-93.95
X152.25Y-85.2
X152.25Y-100.2
X152.35Y-113.25
X152.4Y-116.75
X152.42Y-87.29
X152.425Y-90.3
X152.43Y-92.45
X152.55Y-102.2
X153.35Y-104.5
X153.35Y-105.9
X153.55Y-119.9
X153.95Y-93.9
X154.05Y-114.5
X154.2Y-85.25
X154.2Y-103.4
X154.3Y-124.8
X154.4Y-96.95
X154.5Y-112.95
X155.05Y-108.85
X155.1Y-102.4
X155.3Y-119.9
X155.75Y-122.2
X155.85Y-125.35
X156.15Y-110.95
X156.15Y-112.95
X156.4Y-107.8
X156.75Y-88.55
X156.8Y-100.7
X157.Y-116.15
X157.4Y-97.95
X157.45Y-108.85
X157.85Y-110.95
X157.85Y-113.1
X158.55Y-96.95
X158.625Y-119.05
X158.95Y-127.05
X159.5Y-97.9
X159.85Y-120.075
X159.9Y-110.45
X160.5Y-96.
X160.65Y-93.85
X161.45Y-116.25
X161.7Y-108.9
X162.2Y-114.7
X162.4Y-97.9
X163.5Y-102.45
X163.5Y-108.15
X163.5Y-109.25
X163.5Y-113.4
X163.95Y-99.45
X165.45Y-101.05
X165.5Y-105.
X165.5Y-114.3
X165.55Y-107.2
X165.75Y-83.95
X165.75Y-97.9
X165.85Y-99.45
X166.55Y-96.6
X166.8Y-124.55
X167.2Y-85.7
X167.2Y-86.7
X167.2Y-99.7
X167.7Y-105.05
X167.75Y-91.6
X167.75Y-94.9
X167.75Y-100.6
X167.75Y-102.8
X167.75Y-110.55
X167.8Y-82.2
X167.8Y-127.8
X168.2Y-85.25
X168.225Y-119.775
X168.25Y-114.4
X168.75Y-125.55
X169.275Y-90.775
X169.275Y-96.425
T2
X122.73Y-84.
X122.73Y-98.
X122.73Y-112.
X122.73Y-126.
X127.81Y-112.
X136.73Y-84.
X136.73Y-98.
X136.73Y-112.
X136.73Y-126.
X141.81Y-112.
X142.46Y-88.03
X142.46Y-90.57
X145.Y-88.03
X145.Y-90.57
X147.54Y-88.03
X147.54Y-90.57
X148.19Y-112.
X153.27Y-84.
X153.27Y-98.
X153.27Y-112.
X153.27Y-126.
X156.4Y-103.9
X156.4Y-104.65
X156.4Y-105.35
X156.4Y-106.1
X158.3Y-100.
X159.05Y-100.
X159.75Y-100.
X160.5Y-100.
X162.19Y-112.
X162.7Y-103.9
X162.7Y-104.65
X162.7Y-105.35
X162.7Y-106.1
X167.27Y-84.
X167.27Y-98.
X167.27Y-112.
X167.27Y-126.
T0
M30
